<?xml version="1.0" encoding="UTF-8" standalone="no"?>
<!-- Created with Inkscape (http://www.inkscape.org/) -->

<svg
   xmlns:osb="http://www.openswatchbook.org/uri/2009/osb"
   xmlns:dc="http://purl.org/dc/elements/1.1/"
   xmlns:cc="http://creativecommons.org/ns#"
   xmlns:rdf="http://www.w3.org/1999/02/22-rdf-syntax-ns#"
   xmlns:svg="http://www.w3.org/2000/svg"
   xmlns="http://www.w3.org/2000/svg"
   xmlns:sodipodi="http://sodipodi.sourceforge.net/DTD/sodipodi-0.dtd"
   xmlns:inkscape="http://www.inkscape.org/namespaces/inkscape"
   width="32in"
   height="18in"
   viewBox="0 0 812.8 457.2"
   version="1.1"
   id="svg8"
   inkscape:version="0.92.3 (2405546, 2018-03-11)"
   sodipodi:docname="acrylic16x18.svg">
  <defs
     id="defs2">
    <inkscape:path-effect
       effect="bend_path"
       id="path-effect5649"
       is_visible="true"
       bendpath="M 424.77114,58.651644 C 511.88606,18.088905 573.73184,42.59229 613.98304,122.70012"
       prop_scale="1"
       scale_y_rel="false"
       vertical="false"
       bendpath-nodetypes="cc" />
    <inkscape:path-effect
       effect="bend_path"
       id="path-effect1942"
       is_visible="true"
       bendpath="M 424.87114,58.651644 H 659.06365"
       prop_scale="1"
       scale_y_rel="false"
       vertical="false" />
    <linearGradient
       id="linearGradient4522"
       osb:paint="solid">
      <stop
         style="stop-color:#000000;stop-opacity:1;"
         offset="0"
         id="stop4520" />
    </linearGradient>
  </defs>
  <sodipodi:namedview
     id="base"
     pagecolor="#ffffff"
     bordercolor="#666666"
     borderopacity="1.0"
     inkscape:pageopacity="0.0"
     inkscape:pageshadow="2"
     inkscape:zoom="0.54115914"
     inkscape:cx="1987.9272"
     inkscape:cy="712.77992"
     inkscape:document-units="in"
     inkscape:current-layer="layer1"
     showgrid="false"
     units="in"
     inkscape:window-width="1920"
     inkscape:window-height="1001"
     inkscape:window-x="-9"
     inkscape:window-y="-9"
     inkscape:window-maximized="1" />
  <metadata
     id="metadata5">
    <rdf:RDF>
      <cc:Work
         rdf:about="">
        <dc:format>image/svg+xml</dc:format>
        <dc:type
           rdf:resource="http://purl.org/dc/dcmitype/StillImage" />
        <dc:title />
      </cc:Work>
    </rdf:RDF>
  </metadata>
  <g
     inkscape:label="Layer 1"
     inkscape:groupmode="layer"
     id="layer1"
     transform="translate(0,160.20003)">
    <path
       id="rect3713"
       style="fill:none;fill-opacity:0;stroke:#000000;stroke-width:0.254;stroke-linejoin:round;stroke-miterlimit:4;stroke-dasharray:none;stroke-opacity:1"
       d="m 107.80866,-90.337319 v 6.138711 H 57.153942 v -6.13768 C 29.040816,-90.281355 6.4187013,-67.659213 6.3637417,-39.546086 H 12.501421 V 11.108642 H 6.3627076 V 74.822613 H 12.501421 V 125.47734 H 6.3627076 v 63.71397 h 6.1387134 v 50.65473 H 6.3637417 c 0.054959,28.11313 22.6770743,50.73523 50.7902003,50.7902 v -6.13768 h 50.654718 v 6.13871 h 63.71398 v -6.13871 h 50.65472 v 6.13871 h 63.71397 v -6.13871 h 50.65475 v 6.13768 c 28.11311,-0.0549 50.73522,-22.67707 50.79018,-50.7902 h -6.13768 v -50.65473 h 6.13872 v -63.71397 h -6.13872 V 74.822613 h 6.13872 V 11.108642 h -6.13872 v -50.654728 h 6.13768 c -0.0549,-28.113127 -22.67707,-50.735239 -50.79018,-50.790202 v 6.13768 h -50.65475 v -6.138711 h -63.71397 v 6.138711 h -50.65472 v -6.138711 z"
       inkscape:connector-curvature="0" />
    <rect
       style="fill:#000000;fill-opacity:0;stroke:none;stroke-width:0.0254;stroke-linejoin:round;stroke-miterlimit:4;stroke-dasharray:none;stroke-opacity:1"
       id="rect4826"
       width="72.445435"
       height="53.546627"
       x="468.69046"
       y="-338.00003"
       ry="27.940001" />
    <flowRoot
       xml:space="preserve"
       id="flowRoot4828"
       style="font-style:normal;font-weight:normal;font-size:40px;line-height:1.25;font-family:sans-serif;letter-spacing:0px;word-spacing:0px;fill:#000000;fill-opacity:1;stroke:none"
       transform="matrix(0.26458333,0,0,0.26458333,0,-465.00003)"><flowRegion
         id="flowRegion4830"><rect
           id="rect4832"
           width="1100"
           height="1047.619"
           x="183.33333"
           y="256.19049" /></flowRegion><flowPara
         id="flowPara4834" /></flowRoot>    <path
       id="path5429"
       style="fill:none;stroke:#000000;stroke-width:0.254;stroke-miterlimit:4;stroke-dasharray:none;stroke-opacity:1"
       d="m 57.367032,-36.698658 v -8.815064 h 1.174347 1.174345 v 8.815064 8.815086 h -1.174345 -1.174347 z m 22.98366,1.047335 v -7.767738 h -2.768107 -2.768107 v -1.047345 -1.047316 h 6.626681 6.626669 v 1.047316 1.047345 h -2.768106 -2.768105 v 7.767738 7.767751 h -1.090458 -1.090467 z m 24.912948,-2.352313 c 0.96626,-0.258465 1.35933,-0.496048 1.95428,-1.181231 1.159,-1.334825 0.93933,-2.837814 -0.54232,-3.710522 -0.6805,-0.400814 -0.94265,-0.441256 -3.21542,-0.496046 l -2.47451,-0.05963 v 2.808898 2.80891 l 1.88733,-0.01791 c 1.03803,-0.01005 2.11383,-0.07845 2.39064,-0.152496 z m 2.27529,7.370797 c -1.42786,-4.581859 -1.93096,-5.095076 -5.00147,-5.10193 l -1.71957,-0.004 v 3.927514 3.927505 h -1.090464 -1.090467 v -8.828724 -8.828691 l 4.085871,0.05723 4.08584,0.05733 1.15028,0.610961 c 1.46138,0.776151 2.11256,1.753299 2.22252,3.334923 0.13926,2.004311 -0.6875,3.573396 -2.343,4.446264 l -0.82668,0.435882 0.51488,0.53572 c 0.67321,0.700462 0.78314,0.941436 1.97977,4.338894 0.55791,1.584115 1.09418,3.096211 1.1917,3.360207 l 0.17729,0.480039 h -1.23988 -1.23986 z m 18.94684,-6.065819 v -8.815064 h 1.17437 1.17435 v 8.815064 8.815086 h -1.17435 -1.17437 z m 69.11877,1.047335 v -7.767738 h -2.7681 -2.76812 v -1.047345 -1.047316 h 6.6267 6.62667 v 1.047316 1.047345 h -2.76812 -2.76811 v 7.767738 7.767751 h -1.09044 -1.09048 z m 18.78956,-1.134594 v -8.902382 h 5.36845 5.36845 v 1.134626 1.134612 h -4.27799 -4.27798 v 2.618332 2.618353 h 4.19408 4.19412 v 1.047315 1.047344 h -4.19412 -4.19408 v 3.054736 3.054728 h 4.36186 4.36186 v 1.047334 1.047347 h -5.45233 -5.45232 z m 28.65448,2.099033 c -2.61145,-3.74181 -4.80474,-6.805261 -4.87395,-6.807682 -0.0692,-0.003 -0.12585,3.059077 -0.12585,6.803321 v 6.807673 h -1.0066 -1.00656 v -8.815086 -8.815064 h 0.9871 0.9871 l 4.75882,6.827704 4.75881,6.827725 0.0438,-6.827725 0.0439,-6.827704 h 1.08853 1.08853 v 8.815064 8.815086 h -0.99783 -0.99776 z m 27.04316,2.701239 v -4.102072 h -4.1941 -4.19411 v 4.102072 4.102073 h -1.17433 -1.17435 v -8.815086 -8.815064 h 1.17435 1.17433 v 3.665668 3.665678 h 4.19411 4.1941 v -3.665678 -3.665668 h 1.09045 1.09049 v 8.815064 8.815086 h -1.09049 -1.09045 z m 20.03446,-6.745618 c -0.50593,-1.549976 -0.97655,-2.923581 -1.04588,-3.052494 -0.0781,-0.145322 -0.52237,0.883712 -1.16913,2.708391 -0.57366,1.618496 -1.04305,2.992122 -1.04305,3.052486 0,0.06033 0.94001,0.109751 2.08895,0.109751 h 2.08889 z m 2.69505,7.967512 -0.96381,-2.88017 h -2.96624 -2.9662 l -0.99637,2.877908 -0.99638,2.877907 -1.23025,0.003 c -0.67665,8.8e-4 -1.2051,-0.06713 -1.17434,-0.152016 0.0307,-0.08474 1.49029,-4.051491 3.24342,-8.814744 l 3.18751,-8.660447 1.04853,-3.62e-4 c 0.57669,-1.8e-4 1.04852,0.02662 1.04852,0.05974 0,0.03302 1.39665,3.965385 3.10365,8.738572 1.70701,4.773206 3.10362,8.712958 3.10362,8.755021 0,0.04203 -0.55752,0.07655 -1.23892,0.07655 h -1.23892 l -0.96382,-2.880189 z m 14.17855,-5.934907 v -8.815064 h 1.17438 1.17431 v 7.76773 7.767739 h 4.02634 4.02634 v 1.047334 1.047347 h -5.20068 -5.20069 z m 22.81592,0 v -8.815064 h 5.36842 5.36846 v 1.047316 1.047345 h -4.27798 -4.278 v 2.880178 2.88016 h 4.11023 4.11023 v 0.960065 0.960057 h -4.11023 -4.11023 v 3.927524 3.927505 h -1.09045 -1.09045 z m -182.27556,8.646681 c -0.55361,-0.197 -1.42179,-0.617485 -1.92928,-0.934382 l -0.92271,-0.576172 -0.0486,-1.532336 -0.0486,-1.532336 0.93569,0.793071 c 0.51464,0.436185 1.42292,1.042635 2.01841,1.347685 3.04978,1.562182 6.51009,0.286011 6.51009,-2.400961 0,-1.510963 -0.79398,-2.106277 -4.40498,-3.302914 -2.50113,-0.828814 -2.95251,-1.045495 -3.76094,-1.805659 -1.54261,-1.45047 -1.61385,-4.097721 -0.15809,-5.875955 1.81334,-2.215017 5.57983,-2.619872 8.77252,-0.942954 l 1.00544,0.528074 v 1.480857 1.480827 l -1.01082,-0.774233 c -1.37919,-1.056419 -2.56864,-1.494255 -4.05931,-1.494255 -2.06709,0 -3.40113,1.004213 -3.40169,2.560642 0,1.359499 0.66005,1.811861 4.66128,3.192123 3.10355,1.070597 3.78013,1.532336 4.48713,3.062331 0.39874,0.86288 0.42701,2.347161 0.0657,3.450346 -0.52069,1.589879 -2.22314,3.040719 -4.18153,3.563412 -1.11899,0.298666 -3.26592,0.16253 -4.52963,-0.287211 z m 25.67374,0.24994 c -1.40242,-0.380073 -2.45621,-1.028685 -3.59299,-2.211455 -1.71187,-1.781206 -2.52879,-3.91965 -2.53378,-6.632936 -0.006,-2.708722 0.83308,-4.983904 2.47245,-6.712249 2.68837,-2.834235 6.58266,-3.302323 10.02265,-1.204742 l 0.75579,0.460856 v 1.481217 1.481208 L 179.2587,-42.0009 c -1.543,-1.230486 -2.68936,-1.639156 -4.37299,-1.55886 -0.87893,0.04191 -1.57372,0.180941 -2.01322,0.402806 -1.02993,0.51994 -2.21902,1.866452 -2.81429,3.186999 -0.45248,1.003671 -0.53984,1.420393 -0.59455,2.834894 -0.0527,1.361891 0.002,1.858528 0.29954,2.778421 0.9286,2.860139 2.85722,4.448878 5.37414,4.427115 1.50437,-0.01311 2.71044,-0.439767 4.09493,-1.44884 0.52408,-0.382003 0.98728,-0.694558 1.02932,-0.694558 0.042,0 0.0764,0.633323 0.0764,1.407396 v 1.407396 l -1.12008,0.528435 c -1.38738,0.654526 -3.24778,1.172906 -4.25506,1.185613 -0.41891,0.006 -1.20594,-0.110763 -1.74897,-0.257954 z M 105.67973,0.18119365 c -0.5518,-1.65341425 -1.00665,-3.04767265 -1.01081,-3.09836215 -0.01,-0.1274395 -2.16934,5.811297 -2.17158,5.9736381 -0.002,0.072034 0.94038,0.1309226 2.09194,0.1309226 h 2.09372 z m 2.75883,8.15559405 -0.97377,-2.8801681 h -2.95346 -2.95347 l -0.99909,2.8801391 -0.999096,2.8801383 -1.211693,3.1e-5 -1.211684,3.9e-5 0.45673,-1.2755222 c 0.251228,-0.7015206 1.702413,-4.667568 3.224863,-8.8134234 l 2.76812,-7.53793 1.02225,-8.916e-4 1.02225,-8.795e-4 3.07169,8.5968822 c 1.68943,4.7283003 3.10597,8.6950775 3.14786,8.8150855 0.0566,0.162199 -0.24645,0.21819 -1.1808,0.21819 h -1.25695 l -0.97375,-2.8801694 z m 18.88919,-7.0662066 c 0.72428,-0.074345 1.55469,-0.2852794 1.95015,-0.49519652 1.83675,-0.97497366 2.30125,-3.04465088 0.94449,-4.20829088 -0.80785,-0.6928462 -1.89232,-0.9090871 -4.25234,-0.8479924 l -1.91684,0.04973 v 2.7928996 2.7928807 l 1.00658,0.022914 c 0.55363,0.012507 1.5742,-0.035421 2.26796,-0.1067401 z m 3.43908,7.7204436 c -0.76411,-2.545443 -1.54177,-4.3291185 -2.12022,-4.8630372 -0.6201,-0.5723598 -1.40602,-0.7660482 -3.10857,-0.7660482 h -1.56871 v 3.9275153 3.9275124 h -1.09048 -1.09046 V 2.4018937 -6.4131896 l 3.56497,0.003 c 3.66104,0.003 4.59666,0.1267801 5.8298,0.7766535 1.22036,0.6431284 1.88666,1.6280901 2.09923,3.1030731 0.26215,1.81889657 -0.59166,3.577559 -2.19352,4.5182041 l -0.93309,0.5479161 0.4081,0.4572449 c 0.22444,0.2514908 0.52576,0.6536253 0.66955,0.8936495 0.21642,0.361192 2.63397,7.0227624 2.63397,7.2579254 0,0.04031 -0.54734,0.07334 -1.2163,0.07314 l -1.21629,-3.39e-4 -0.66798,-2.2252335 z m 18.70261,-5.5418169 v -7.7677291 h -2.76811 -2.76812 v -1.0473342 -1.0473341 h 6.71058 6.71056 v 1.0473341 1.0473342 h -2.76812 -2.76809 v 7.7677291 7.7677592 h -1.17435 -1.17435 z m 18.78958,-1.0473141 v -8.8150833 h 5.45232 5.45233 v 1.0473341 1.0473342 h -4.27796 -4.27801 v 2.6183428 2.61834286 h 4.11023 4.11021 V 1.9655005 3.0128347 h -4.11021 -4.11023 v 3.0547269 3.054746 h 4.27801 4.27796 v 1.0473244 1.047335 h -5.45233 -5.45232 z m 28.18434,-1.1367249 c 1.49838,-0.1607796 2.10249,-0.38396464 2.74114,-1.01269633 0.66727,-0.65688659 0.94963,-1.29299167 0.94963,-2.13908497 0,-0.6082493 -0.1033,-0.8349865 -0.63111,-1.3841034 -0.80997,-0.8427602 -1.83356,-1.077001 -4.41423,-1.0101828 l -1.91682,0.04973 v 2.7928996 2.7928807 l 1.00657,0.022914 c 0.55363,0.012507 1.57279,-0.037923 2.26482,-0.1121434 z m 3.28295,7.1182459 C 198.84814,5.6006601 198.28893,4.5041674 197.39683,3.8156638 196.99692,3.5070105 196.62955,3.441224 195.00617,3.3876137 l -1.91809,-0.063331 v 3.9463436 3.9463657 h -1.09048 -1.09045 V 2.3880594 -6.4408723 l 3.98438,0.06703 c 4.60857,0.077547 5.13527,0.2037244 6.43441,1.541452 0.59464,0.6123418 0.82143,1.0082727 0.9858,1.7211809 0.52018,2.25620031 -0.34728,4.215074 -2.32321,5.2461004 l -0.7328,0.3824037 0.50296,0.5532385 c 0.27663,0.3042698 0.59156,0.7326298 0.6998,0.9518825 0.25641,0.519329 2.52766,6.8622933 2.52766,7.0590633 0,0.08295 -0.53845,0.127681 -1.19657,0.09945 l -1.19658,-0.05122 z m 19.02965,-4.9342069 v -7.7677291 h -2.76811 -2.76812 v -1.0473342 -1.0473341 h 6.62669 6.62668 v 1.0473341 1.0473342 h -2.76811 -2.7681 v 7.7677291 7.7677592 h -1.09047 -1.09046 z m 26.08973,1.0909993 c -0.99716,-3.67222988 -1.86831,-6.7874001 -1.93586,-6.9226164 -0.14744,-0.2951242 -0.15735,-0.2610258 -2.20494,7.5921506 l -1.5656,6.0046457 -1.03722,8.9e-4 c -0.84405,8.8e-4 -1.05319,-0.05553 -1.12284,-0.304191 -0.0471,-0.168013 -1.15035,-3.9973241 -2.45167,-8.5096026 -1.30131,-4.5122706 -2.40534,-8.3415888 -2.45341,-8.5096138 -0.0773,-0.2701302 0.046,-0.3054705 1.06644,-0.3054705 h 1.15383 l 1.82115,6.58949137 c 1.0016,3.62421403 1.87859,6.65839873 1.94885,6.74261433 0.0703,0.084241 0.21587,-0.1907156 0.32358,-0.61093 0.10765,-0.4202545 0.9059,-3.4189991 1.77373,-6.66391204 0.86787,-3.24489216 1.57791,-5.93524536 1.57791,-5.97853936 0,-0.043226 0.47182,-0.077547 1.04852,-0.076146 l 1.04853,0.003 1.82966,6.58699882 c 1.00632,3.62284318 1.88787,6.65589618 1.959,6.74011378 0.0711,0.084241 0.20933,-0.1514439 0.30702,-0.5236525 0.0978,-0.3721966 0.92239,-3.3867302 1.83256,-6.69892109 l 1.65487,-6.02219351 1.13661,-0.052131 c 0.87631,-0.040224 1.11842,-1.701e-4 1.0572,0.1745579 -0.0436,0.1247299 -1.16632,4.095268 -2.49477,8.8235484 l -2.41534,8.5968928 h -1.02237 -1.02238 z M 260.5292,2.4018937 v -8.8150833 h 5.36844 5.36844 v 1.0473341 1.0473342 h -4.27799 -4.27796 v 2.6183428 2.61834286 h 4.19409 4.19412 V 1.9655005 3.0128347 h -4.19412 -4.19409 v 3.0547269 3.054746 h 4.36185 4.36186 v 1.0473244 1.047335 h -5.45232 -5.45232 z m 28.51986,1.9593639 -4.78127,-6.8469439 -0.0439,6.8513365 -0.0439,6.8513168 h -1.00463 -1.00467 V 2.4018937 -6.4131896 l 0.96467,0.006 0.96464,0.006 4.61351,6.64049897 c 2.53744,3.65229993 4.70788,6.72244423 4.82321,6.82252033 0.16718,0.1450511 0.20971,-1.2031608 0.20971,-6.64710196 V -6.4142403 h 1.00661 1.00656 v 8.8150853 8.815074 l -0.96464,-0.004 -0.96465,-0.004 -4.78127,-6.8469346 z m 21.80932,-0.9120498 v -7.7677291 h -2.76811 -2.76808 v -1.0473342 -1.0473341 h 6.62665 6.62669 v 1.0473341 1.0473342 h -2.68422 -2.68422 v 7.7677291 7.7677592 h -1.17435 -1.17436 z m 23.15143,3.7479634 V 3.1773967 l -3.10364,-4.7216776 c -1.707,-2.5969299 -3.10363,-4.7548062 -3.10363,-4.7952885 0,-0.040524 0.58507,-0.071633 1.30017,-0.069442 l 1.30016,0.004 2.34871,3.7480445 c 1.29177,2.06141127 2.39424,3.7483336 2.4499,3.7486938 0.0556,3.602e-4 1.15033,-1.68684227 2.43258,-3.7493542 l 2.33137,-3.7500447 1.39225,-0.003 1.39226,-0.003 -1.0765,1.6146509 c -0.59212,0.8880475 -2.03019,3.0522855 -3.19574,4.80939705 l -2.11921,3.19476435 v 4.005667 4.0056797 h -1.17435 -1.17433 V 7.1966919 Z M 78.79472,11.076129 C 77.527154,10.605856 76.308067,9.6596764 75.661954,8.6447197 74.693923,7.1241113 74.646706,6.7146133 74.646706,-0.16084781 V -6.4131896 h 1.090479 1.090467 v 6.24974023 6.24974127 l 0.424962,0.887324 c 0.47448,0.990725 1.254768,1.6430689 2.488443,2.0804437 1.111889,0.3941797 3.28423,0.2688294 4.240484,-0.244708 0.924434,-0.4964863 1.827421,-1.6242457 2.055675,-2.5674833 0.117026,-0.4837596 0.185213,-2.9521591 0.185213,-6.7101778 v -5.9448801 h 1.183798 1.183829 l -0.05142,6.41493246 -0.05142,6.41494344 -0.482183,1.0861465 c -0.780978,1.7592617 -2.708864,3.3901842 -4.591976,3.8846692 -1.010454,0.265349 -3.519958,0.09616 -4.618359,-0.311373 z M 58.709144,9.2073957 c 0,-0.1219473 -0.710455,-1.4503812 -1.842589,-3.4453146 L 56.495058,5.1075039 h 1.352195 1.352193 l 0.863915,1.5273635 c 0.475163,0.8400596 0.894084,1.5609126 0.930953,1.6019152 0.130888,0.1455805 0.99972,-0.8609211 1.527987,-1.7700772 1.525758,-2.6258484 1.348585,-6.35355062 -0.416904,-8.7711008 -2.126812,-2.9123565 -5.298331,-2.8824595 -7.430493,0.070032 -1.518349,2.10253492 -1.844264,5.562597 -0.763495,8.1053778 0.486515,1.1446176 1.601139,2.4520499 2.494902,2.9264749 0.677214,0.359482 2.302833,0.6488028 2.302833,0.4098692 z m 1.826834,2.9691683 -0.400724,-0.785939 -1.280147,0.111132 C 55.170393,11.821475 51.939864,8.996538 51.08905,4.7106425 50.754946,3.0276925 50.754913,1.9541137 51.088899,0.25626475 51.459069,-1.6254166 52.221354,-3.1466063 53.445796,-4.4469725 58.557099,-9.8752643 66.540529,-5.0857192 66.025692,3.1001631 65.839614,6.0590075 64.836146,8.182451 62.896808,9.7213014 l -0.806132,0.6396476 0.657933,1.187364 c 0.361855,0.653043 0.657927,1.238422 0.657927,1.300827 0,0.06234 -0.555715,0.113403 -1.234913,0.113403 h -1.23493 z m -7.363049,29.325861 v -8.815084 h 5.452323 5.45233 v 1.047354 1.047334 h -4.361858 -4.361863 v 2.880169 2.88018 h 4.110215 4.110226 v 0.960047 0.960065 h -4.110226 -4.110215 v 3.927503 3.927525 h -1.090467 -1.090465 z m 27.177763,0 v -8.815084 h 1.174343 1.174343 v 8.815084 8.815093 h -1.174343 -1.174343 z m 20.166848,0.30547 c -1.762417,-4.680265 -3.254343,-8.647061 -3.315378,-8.815064 -0.09945,-0.273743 0.01751,-0.30549 1.124357,-0.30549 h 1.235367 l 2.509074,7.069519 c 1.37997,3.88824 2.55253,7.069538 2.60566,7.069538 0.0531,0 1.18057,-3.122384 2.5054,-6.938606 1.32484,-3.816222 2.46166,-7.001201 2.52627,-7.077704 0.0646,-0.07655 0.64764,-0.115804 1.29561,-0.08725 l 1.17811,0.05182 -3.07752,8.3787 c -1.69268,4.608264 -3.15333,8.55541 -3.24591,8.771442 -0.1469,0.342749 -0.29359,0.392748 -1.15246,0.392748 h -0.98417 z m 21.77414,-0.39275 v -8.902353 h 5.36846 5.36843 v 1.134613 1.134624 h -4.27799 -4.27796 v 2.618334 2.618333 h 4.11022 4.11021 v 1.047354 1.047335 h -4.11021 -4.11022 v 3.054728 3.054724 h 4.36187 4.36183 v 1.047325 1.047356 h -5.45233 -5.45231 z m 58.1741,2.053016 -0.0438,-6.849356 -3.10364,6.849286 -3.10364,6.849297 -0.57034,-0.04363 -0.57037,-0.04363 -2.88185,-6.435055 c -1.58503,-3.539256 -2.96591,-6.563426 -3.06865,-6.720385 -0.13883,-0.212067 -0.18932,1.452563 -0.19666,6.478661 l -0.01,6.764037 h -1.00659 -1.0066 V 41.50233 32.687237 l 1.3002,7.01e-4 1.30018,5.19e-4 3.01846,6.720243 c 1.66018,3.696126 3.08474,6.697262 3.1657,6.669176 0.0811,-0.02811 1.53436,-3.032804 3.22981,-6.677199 l 3.08262,-6.626151 1.25911,-0.05103 1.25916,-0.05092 v 8.822427 8.822428 h -1.00463 -1.00466 z m 15.30652,-1.965736 v -8.815084 h 1.09044 1.09049 v 8.815084 8.815093 h -1.09049 -1.09044 z m 24.15799,1.959363 -4.78125,-6.846915 -0.0438,6.851308 -0.044,6.851337 h -1.08851 -1.08853 v -8.815093 -8.815084 l 1.04853,0.006 1.04854,0.006 4.61348,6.641278 c 2.53744,3.652682 4.70788,6.723146 4.82324,6.823262 0.16717,0.145102 0.20969,-1.20308 0.20969,-6.647043 v -6.829063 h 1.00658 1.00661 v 8.815093 8.815085 l -0.96466,-0.004 -0.96464,-0.004 -4.7813,-6.846935 z m 44.79299,-0.91203 v -7.767729 h -2.76811 -2.7681 v -1.047334 -1.047354 h 6.62669 6.62667 v 1.047354 1.047334 h -2.76811 -2.7681 v 7.767729 7.76776 h -1.09046 -1.09048 z m 18.78957,-1.134613 v -8.902353 h 5.45234 5.45233 v 1.134613 1.134624 h -4.36188 -4.36186 v 2.618334 2.618333 h 4.1941 4.19412 v 1.047354 1.047335 h -4.19412 -4.1941 v 3.054728 3.054724 h 4.36186 4.36188 v 1.047325 1.047356 h -5.45233 -5.45234 z m 55.69764,4.8003 v -4.10206 h -4.1941 -4.19411 v 4.10206 4.102073 h -1.09047 -1.09042 v -8.815093 -8.815084 h 1.09042 1.09047 v 3.665676 3.665679 h 4.19411 4.1941 v -3.665679 -3.665676 h 1.09047 1.09046 v 8.815084 8.815093 h -1.09046 -1.09047 z m -188.58575,4.275689 c -2.85929,-0.55521 -5.47595,-3.218126 -6.26686,-6.377622 -0.14129,-0.564374 -0.25688,-1.73937 -0.25688,-2.611087 0,-1.834795 0.30806,-3.236388 1.01364,-4.611517 1.05668,-2.05935 2.64946,-3.485987 4.69938,-4.209201 0.9083,-0.32044 1.33655,-0.368117 2.67517,-0.297897 1.67668,0.08794 2.7188,0.405917 4.10937,1.253841 l 0.75579,0.460856 v 1.481217 1.481238 l -1.07932,-0.86075 c -1.45573,-1.160938 -2.61441,-1.59375 -4.25347,-1.588918 -1.50077,0.006 -2.32237,0.321641 -3.36017,1.297186 -1.46466,1.376798 -2.21171,3.236767 -2.21171,5.506665 0,2.271268 0.74698,4.129809 2.21415,5.508978 1.01997,0.958776 1.94028,1.318115 3.37596,1.318115 1.74995,0 3.07206,-0.511025 4.68544,-1.811051 l 0.62912,-0.506903 v 1.470842 1.470872 l -1.32082,0.644939 c -2.06902,1.010235 -3.71657,1.308811 -5.40879,0.980197 z m 90.58959,-0.07585 c -3.02249,-0.666592 -4.85219,-2.692043 -5.193,-5.748461 -0.0764,-0.684313 -0.14204,-3.659624 -0.1461,-6.611813 l -0.007,-5.367598 h 1.17432 1.17437 l 0.005,6.240384 c 0.005,7.023024 0.0144,7.091613 1.25796,8.227458 1.01322,0.925666 1.6441,1.136092 3.43574,1.146049 1.46355,0.0079 1.66869,-0.03391 2.51082,-0.514807 1.02762,-0.586797 1.79116,-1.578532 2.02582,-2.631199 0.084,-0.376942 0.15455,-3.336434 0.15674,-6.576604 l 0.005,-5.891281 h 1.18562 1.18562 l -0.057,6.327664 c -0.0549,6.091273 -0.0711,6.364476 -0.43629,7.313395 -0.72962,1.896438 -2.50404,3.462754 -4.55358,4.019527 -1.35497,0.368104 -2.28144,0.384843 -3.72135,0.06734 z m 67.79058,-0.264237 c -0.59533,-0.193329 -1.49762,-0.612702 -2.00511,-0.931961 l -0.9227,-0.580455 -0.0486,-1.532334 -0.0486,-1.532367 0.9412,0.797736 c 0.51764,0.438755 1.44547,1.054399 2.06185,1.368115 1.0129,0.515536 1.26588,0.570387 2.63054,0.570387 1.35523,0 1.5926,-0.05053 2.31729,-0.493796 1.05962,-0.648051 1.45599,-1.340337 1.4568,-2.54432 5e-4,-0.872879 -0.0492,-0.992765 -0.66579,-1.603056 -0.56218,-0.556401 -1.08054,-0.800907 -3.31335,-1.562712 -1.45581,-0.496739 -2.92192,-1.049088 -3.258,-1.227468 -1.21355,-0.644078 -2.15703,-2.261842 -2.15703,-3.698554 0,-0.998448 0.53154,-2.262193 1.2783,-3.039199 2.01209,-2.09352 5.48989,-2.39935 8.61553,-0.757642 l 1.01081,0.530905 v 1.480857 1.480838 l -1.0108,-0.774222 c -1.38824,-1.063315 -2.56658,-1.494264 -4.0859,-1.494264 -2.05144,0 -3.37537,0.992273 -3.37537,2.529802 0,1.381082 0.68384,1.864101 4.44435,3.139124 2.86326,0.970811 3.07928,1.077861 3.89676,1.931268 0.87382,0.91226 1.20443,1.903724 1.09738,3.2912 -0.19325,2.504909 -1.96659,4.393713 -4.68677,4.991987 -1.02526,0.225496 -2.90248,0.07253 -4.1726,-0.339869 z M 60.234566,79.062673 c 1.114858,-0.61179 1.539623,-1.369454 1.456986,-2.59878 -0.07603,-1.130613 -0.34867,-1.545004 -1.388655,-2.110529 -0.560064,-0.304569 -1.052584,-0.37693 -2.977808,-0.437615 l -2.306756,-0.07284 v 2.8127 2.812723 h 2.238425 c 2.018686,0 2.311015,-0.03982 2.977808,-0.405758 z m -7.564929,1.540372 v -8.815074 h 3.514788 c 3.945003,0 4.786627,0.128622 6.06612,0.926949 1.257964,0.784958 1.88161,1.877389 1.966757,3.445163 0.124159,2.285947 -0.785312,3.891023 -2.785296,4.915666 -1.101585,0.564365 -1.168979,0.575731 -3.767665,0.636576 l -2.646008,0.06204 v 3.821936 3.82193 h -1.174347 -1.174349 z m 30.863458,0.654576 c -0.003,-0.07204 -0.448436,-1.46626 -0.990333,-3.098351 -0.863601,-2.601085 -1.00531,-2.913579 -1.147718,-2.531065 -0.08935,0.240006 -0.354154,0.986232 -0.588423,1.658276 -0.234268,0.672036 -0.65726,1.869936 -0.940005,2.661987 l -0.51407,1.440085 h 2.092836 c 1.15104,0 2.090525,-0.05904 2.087713,-0.130932 z m 1.829542,5.280344 -0.943698,-2.792905 H 81.44229 78.465639 l -0.734023,2.094669 c -0.403711,1.152065 -0.853977,2.428517 -1.000617,2.836548 l -0.266637,0.741843 h -1.160475 c -0.63825,0 -1.160456,-0.06559 -1.160456,-0.145879 0,-0.08024 1.428463,-4.027403 3.174379,-8.771454 l 3.174409,-8.625536 h 1.047975 1.047993 l 2.409241,6.720403 c 1.325086,3.696213 2.740201,7.64653 3.144672,8.778511 l 0.735423,2.058087 -1.285605,-0.05074 -1.285614,-0.05074 z M 126.48577,81.65038 v -7.767738 h -2.7681 -2.7681 v -1.047326 -1.047345 h 6.62668 6.62669 v 1.047345 1.047326 h -2.76813 -2.76811 v 7.767738 7.76774 h -1.09045 -1.09048 z m 22.98367,0 v -7.767738 h -2.76811 -2.76812 v -1.047326 -1.047345 h 6.71058 6.71056 v 1.047345 1.047326 h -2.76812 -2.76809 v 7.767738 7.76774 h -1.17435 -1.17435 z m 41.941,-1.134615 v -8.902362 h 5.36845 5.36843 v 1.134625 1.134614 h -4.27798 -4.27797 v 2.618331 2.618332 h 4.11021 4.11024 v 1.047355 1.047317 h -4.11024 -4.11021 v 3.054757 3.054717 h 4.36186 4.36185 v 1.047334 1.047335 h -5.45234 -5.4523 z m 51.59788,2.057679 c -2.58932,-3.716555 -4.76448,-6.760365 -4.83369,-6.764037 -0.0692,-0.004 -0.12585,3.056797 -0.12585,6.801028 v 6.807685 h -1.0066 -1.00656 v -8.815075 -8.815074 h 0.9792 0.9792 l 4.76673,6.834808 4.7667,6.834797 0.0438,-6.834797 0.0439,-6.834808 h 1.08853 1.08853 v 8.823409 8.823373 l -1.03806,-0.05189 -1.03804,-0.05189 z m 17.52088,-2.057679 v -8.902362 h 5.36844 5.36844 v 1.134625 1.134614 h -4.27799 -4.27796 v 2.618331 2.618332 h 4.19409 4.19412 v 1.047355 1.047317 h -4.19412 -4.19409 v 3.054757 3.054717 h 4.36185 4.36186 v 1.047334 1.047335 h -5.45232 -5.45232 z m 27.3455,1.134615 v -7.767738 h -2.76808 -2.76811 v -1.047326 -1.047345 h 6.62668 6.62665 v 1.047345 1.047326 h -2.7681 -2.7681 v 7.767738 7.76774 h -1.09045 -1.09049 z m 26.09956,1.003309 c -1.00823,-3.720016 -1.88923,-6.832005 -1.95779,-6.915502 -0.0684,-0.08345 -0.19343,0.112903 -0.2775,0.436383 -0.0842,0.323522 -0.89918,3.43569 -1.81131,6.915904 l -1.65847,6.327646 h -1.01931 -1.01934 l -2.47507,-8.559903 c -1.3613,-4.707969 -2.51743,-8.674764 -2.56919,-8.815084 -0.077,-0.208955 0.11982,-0.255162 1.08689,-0.255162 0.98013,0 1.19563,0.05193 1.26707,0.305462 0.0474,0.168034 0.73701,2.661975 1.53263,5.542164 2.20862,7.995226 2.11483,7.687734 2.25988,7.409159 0.0723,-0.138799 0.90735,-3.178365 1.85575,-6.754574 l 1.72431,-6.502211 h 1.02965 1.02965 l 1.81593,6.502211 c 0.99878,3.576209 1.87448,6.615775 1.94601,6.754574 0.14356,0.278585 0.15279,0.248588 2.00923,-6.536382 0.65671,-2.400151 1.34379,-4.894123 1.52682,-5.542155 l 0.3328,-1.178248 h 1.10292 c 0.96934,0 1.09316,0.03702 1.02217,0.305462 -0.0444,0.168034 -1.16085,4.134809 -2.48085,8.815082 l -2.40001,8.509605 h -1.01986 -1.01984 l -1.83317,-6.76368 z m -212.68307,6.542386 c -0.61624,-0.233113 -1.50329,-0.679433 -1.971208,-0.99186 l -0.850796,-0.568043 v -1.47038 -1.470383 l 1.132422,0.905048 c 1.944592,1.554184 3.702522,2.125125 5.621302,1.825772 2.07735,-0.324164 3.40056,-2.494736 2.47923,-4.066935 -0.507,-0.865173 -1.38882,-1.350034 -4.07044,-2.23819 -3.856058,-1.277083 -4.842038,-2.158526 -4.965904,-4.43941 -0.113972,-2.09962 0.884374,-3.677663 2.970784,-4.695572 0.84425,-0.41191 1.13576,-0.459157 2.78823,-0.451952 1.58587,0.0079 2.00283,0.07253 2.96472,0.467081 1.9782,0.811283 1.98432,0.819067 1.98432,2.524111 v 1.475342 l -0.72471,-0.617916 c -2.35644,-2.009091 -5.69236,-2.252878 -7.15239,-0.522702 -0.96012,1.137816 -0.60282,2.63246 0.80492,3.367141 0.3373,0.176009 1.80646,0.731639 3.26483,1.234711 3.01196,1.039009 3.81254,1.555639 4.46926,2.884021 0.82341,1.665569 0.41605,4.018835 -0.93985,5.429637 -1.8436,1.918203 -4.97977,2.488996 -7.80472,1.420479 z m 73.84614,-2.03953 c 1.21757,-0.435523 2.65379,-1.981867 3.19567,-3.440671 0.53011,-1.427128 0.63969,-3.883219 0.24155,-5.413596 -0.69631,-2.676554 -2.72421,-4.594184 -4.85836,-4.594184 -3.24369,0 -5.69357,3.947104 -5.1192,8.247777 0.33762,2.527871 1.87794,4.704738 3.73512,5.278577 1.10534,0.341531 1.67703,0.325662 2.80522,-0.07794 z m -3.86568,2.103446 c -2.03403,-0.795204 -4.0087,-3.083954 -4.72644,-5.478221 -0.55611,-1.855064 -0.52715,-4.784153 0.0644,-6.513098 0.82426,-2.409116 2.31916,-4.212013 4.30348,-5.190168 1.02691,-0.506173 1.26165,-0.552379 2.80712,-0.552379 1.61092,0 1.74355,0.02933 2.96013,0.655035 2.1451,1.103247 3.74033,3.267685 4.34166,5.890821 0.28292,1.23424 0.28251,3.83067 0,5.062128 -0.50215,2.182658 -2.1684,4.593146 -3.90843,5.654165 -1.6756,1.021714 -3.96199,1.206351 -5.8411,0.471717 z m 49.97305,-2.094994 c 1.00469,-0.360998 2.15838,-1.41849 2.82378,-2.588364 1.67869,-2.951257 0.95637,-7.834906 -1.4524,-9.819943 -3.79085,-3.123976 -8.56424,1.112451 -7.87417,6.988313 0.21865,1.86208 0.7502,3.083171 1.83207,4.208821 1.42449,1.482166 2.87201,1.857517 4.67072,1.211173 z m -3.83797,2.094994 c -2.03622,-0.79604 -3.93553,-2.993723 -4.6946,-5.432075 -0.47705,-1.532487 -0.55929,-4.16973 -0.17944,-5.755935 0.62701,-2.618234 2.36293,-4.932935 4.48297,-5.977619 1.0634,-0.524023 1.28437,-0.568237 2.83948,-0.568237 1.61071,0 1.74347,0.02942 2.96011,0.655035 3.6449,1.874319 5.43439,6.622059 4.25132,11.27911 -0.53595,2.109689 -2.08175,4.278409 -3.78503,5.310429 -1.71685,1.040169 -3.98293,1.228927 -5.87481,0.489292 z m 119.02281,-2.050106 c 0.61053,-0.194961 1.09566,-0.544641 1.86008,-1.340609 1.30766,-1.361761 1.76375,-2.509862 1.88397,-4.742579 0.13801,-2.562961 -0.47272,-4.423531 -1.96,-5.971015 -1.85381,-1.928877 -4.44487,-1.920973 -6.30376,0.01901 -1.03612,1.081413 -1.52204,2.086634 -1.87214,3.873052 -0.67186,3.427855 0.87899,7.110443 3.40919,8.095454 1.06435,0.414349 1.83952,0.431653 2.98266,0.06653 z m -3.0136,2.286452 c -3.33331,-0.903141 -5.67433,-4.156996 -5.89602,-8.195072 -0.22232,-4.049484 1.54458,-7.543383 4.61211,-9.120105 1.21739,-0.625728 1.34979,-0.655035 2.96012,-0.654604 1.54995,0 1.77769,0.04583 2.82681,0.562364 2.90902,1.43252 4.69021,4.665936 4.69021,8.514125 0,2.844638 -0.8203,5.029119 -2.57349,6.853313 -1.92128,1.999023 -4.19016,2.698237 -6.61974,2.039979 z M 57.367032,120.75091 v -7.76772 h -2.768108 -2.768105 v -1.04732 -1.04736 h 6.626676 6.626675 v 1.04736 1.04732 h -2.768106 -2.768107 v 7.76772 7.76777 h -1.090462 -1.090463 z m 28.3521,3.66567 v -4.10204 h -4.194097 -4.194108 v 4.10204 4.1021 h -1.174343 -1.174353 v -8.81512 -8.81505 h 1.174353 1.174343 v 3.75295 3.75296 h 4.194108 4.194097 v -3.75296 -3.75295 h 1.090478 1.090458 v 8.81505 8.81512 H 86.80961 85.719132 Z m 18.812528,-5.84537 c 2.07911,-0.2782 3.4336,-1.52003 3.39948,-3.11671 -0.0145,-0.67791 -0.1067,-0.87061 -0.68522,-1.43209 -0.84283,-0.81803 -1.76646,-1.03922 -4.33922,-1.03922 h -1.92103 v 2.88017 2.88017 l 1.30017,-0.0229 c 0.71508,-0.0126 1.72571,-0.0798 2.24582,-0.14944 z m 3.15047,7.63459 c -0.87805,-2.92044 -1.66749,-4.53555 -2.46874,-5.05081 -0.49777,-0.32011 -0.91326,-0.39661 -2.49633,-0.45965 l -1.89917,-0.0757 v 3.94949 3.94949 h -1.090464 -1.090467 v -8.82895 -8.8289 l 3.984391,0.0688 c 3.25837,0.0564 4.12604,0.12422 4.76171,0.37242 1.02524,0.40032 2.12936,1.40292 2.51322,2.28221 0.3484,0.79813 0.40875,2.27489 0.13491,3.30094 -0.22371,0.83835 -1.26034,2.02862 -2.23563,2.56696 l -0.7399,0.40841 0.62718,0.74134 c 0.47747,0.56439 0.85915,1.3998 1.59902,3.49985 0.53454,1.51717 1.11249,3.13163 1.28442,3.58764 l 0.31251,0.82915 h -1.25065 -1.25067 z m 14.60955,-6.50224 v -8.81505 h 5.36846 5.36843 v 1.04736 1.04732 h -4.27799 -4.27796 v 2.61834 2.61833 h 4.11022 4.11021 v 1.04735 1.04733 h -4.11021 -4.11022 v 3.05473 3.05473 h 4.36187 4.36183 v 1.04735 1.04733 h -5.45233 -5.45231 z m 22.98366,0 v -8.81505 h 5.36845 5.36846 v 1.04736 1.04732 h -4.27801 -4.27796 v 2.61834 2.61833 h 4.11024 4.11019 v 1.04735 1.04733 h -4.11019 -4.11024 v 3.05473 3.05473 h 4.36186 4.36188 v 1.04735 1.04733 h -5.45235 -5.45233 z m 23.15143,0 v -8.81505 h 5.36844 5.36846 v 1.04736 1.04732 h -4.27796 -4.27801 v 2.88017 2.88017 h 4.11023 4.11021 v 0.96003 0.96009 h -4.11021 -4.11023 v 3.92748 3.92755 h -1.09045 -1.09048 z m 74.42842,-1.14093 c 2.64953,-0.3678 4.12367,-2.3589 3.07342,-4.15123 -0.60596,-1.03418 -1.54726,-1.3283 -4.27288,-1.33511 l -2.34869,-0.006 v 2.79291 2.79288 l 1.25823,0.0248 c 0.69205,0.0136 1.72249,-0.0395 2.28992,-0.11843 z m 3.02473,7.36358 c -0.43808,-1.42586 -1.03929,-3.01286 -1.33601,-3.52676 -0.79075,-1.36948 -1.32979,-1.63153 -3.51727,-1.70986 l -1.80348,-0.0646 v 3.94682 3.94683 h -1.17435 -1.17435 v -8.81509 -8.81508 h 3.57168 c 2.68667,0 3.81945,0.0671 4.57158,0.27093 2.04269,0.55343 3.10411,1.59313 3.42525,3.35519 0.33789,1.85379 -0.34918,3.6426 -1.74523,4.54371 -1.45242,0.93748 -1.38826,0.87201 -1.06086,1.08282 0.50909,0.32776 1.11391,1.6192 2.2166,4.73315 0.59079,1.66836 1.12581,3.17088 1.18891,3.33889 0.10291,0.27415 -0.0125,0.30548 -1.12557,0.30548 h -1.24034 z m 14.64928,-6.22265 v -8.81505 h 5.45232 5.45232 v 1.04736 1.04732 h -4.27797 -4.27799 v 2.88017 2.88017 h 4.11021 4.11025 v 0.96003 0.96009 h -4.11025 -4.11021 v 3.92748 3.92755 h -1.17435 -1.17433 z m 27.3455,0 v -8.81505 h 1.09049 1.09045 v 8.81505 8.81512 h -1.09045 -1.09049 z m 19.94778,0.0388 -3.28756,-8.76669 1.16878,-0.0517 c 0.64281,-0.0282 1.20505,-0.014 1.24944,0.0322 0.0442,0.0462 1.2037,3.24235 2.57627,7.10267 1.37257,3.86027 2.5258,7.05013 2.56273,7.08852 0.0707,0.0737 0.50358,-1.13186 3.31669,-9.23793 l 1.7407,-5.01588 1.23586,-0.003 c 1.09662,-0.003 1.22673,0.0318 1.15495,0.30287 -0.0444,0.168 -1.45159,4.03661 -3.1269,8.59688 -1.67532,4.56027 -3.07974,8.38959 -3.12094,8.50962 -0.0493,0.14385 -0.43389,0.21657 -1.12868,0.21343 l -1.0538,-0.006 -3.28754,-8.76669 z m 21.82547,-0.0388 v -8.81505 h 5.45231 5.45234 v 1.04736 1.04732 h -4.27798 -4.278 v 2.61834 2.61833 h 4.11023 4.11023 v 1.04735 1.04733 h -4.11023 -4.11023 v 3.05473 3.05473 h 4.278 4.27798 v 1.04735 1.04733 h -5.45234 -5.45231 z m -131.40525,6.60626 c 1.77002,-0.65212 3.27705,-2.88986 3.62146,-5.37746 0.35406,-2.55704 -0.35568,-4.971 -1.94895,-6.62878 -1.33012,-1.38395 -2.7032,-1.76547 -4.43168,-1.23141 -2.22938,0.68885 -3.90535,3.57215 -3.90535,6.71871 0,2.2183 0.69184,4.07209 2.0233,5.42149 1.28737,1.30469 2.98752,1.70671 4.64122,1.09745 z m -3.32073,2.28071 c -2.58977,-0.78795 -4.89763,-3.51133 -5.50438,-6.49538 -0.26954,-1.32556 -0.23188,-3.73554 0.0778,-4.98471 0.64567,-2.604 2.36962,-4.84746 4.55099,-5.92253 1.0349,-0.51006 1.28482,-0.56123 2.74118,-0.56123 1.51328,0 1.67321,0.0363 2.8741,0.65391 0.92033,0.47327 1.54361,0.95719 2.2561,1.75158 1.79729,2.00391 2.50578,4.19147 2.35852,7.28237 -0.12879,2.70157 -0.71479,4.23612 -2.2914,5.99995 -1.98947,2.22572 -4.53365,3.04558 -7.06294,2.27604 z m 23.12926,0.0808 c -1.37803,-0.30445 -2.6721,-1.07185 -3.61215,-2.14214 -1.44502,-1.64504 -1.45017,-1.67614 -1.51611,-9.1385 l -0.0574,-6.5022 h 1.09983 1.09983 v 5.94489 c 0,3.79868 0.0676,6.22436 0.18732,6.71898 0.44874,1.85418 2.23904,3.04618 4.57522,3.04618 2.07574,0 3.45728,-0.75721 4.1961,-2.29993 l 0.43616,-0.91062 v -6.24974 -6.24976 h 1.18197 1.18199 l -0.0495,6.5022 -0.0496,6.50223 -0.43636,0.96801 c -1.37047,3.04019 -4.71689,4.5882 -8.23716,3.8104 z M 80.350692,158.89145 v -8.90234 h 1.174343 1.174343 v 8.90234 8.90237 h -1.174343 -1.174343 z m 26.722298,5.06985 c -1.36422,-2.10786 -2.5266,-3.83598 -2.58304,-3.84023 -0.0565,-0.004 -1.22329,1.72039 -2.59298,3.83252 l -2.490359,3.84023 H 98.01558 96.624545 l 1.459312,-2.13832 c 0.802637,-1.17606 2.107313,-3.0809 2.899303,-4.23298 0.792,-1.15207 1.60676,-2.34174 1.8106,-2.64372 l 0.37067,-0.54901 -2.48618,-3.64373 c -1.367402,-2.00406 -2.621238,-3.85822 -2.786319,-4.12034 l -0.300145,-0.47661 h 1.321234 1.32123 l 2.09452,3.22385 c 1.60121,2.46457 2.13937,3.17372 2.28493,3.01108 0.10473,-0.11705 1.0728,-1.56774 2.15129,-3.22384 l 1.96086,-3.01109 h 1.34048 c 1.02611,0 1.31165,0.0511 1.21762,0.21821 -0.0675,0.11993 -1.32182,1.9665 -2.78716,4.10333 -1.66942,2.43443 -2.61724,3.96616 -2.53835,4.10206 0.14155,0.24382 6.04866,8.82291 6.3091,9.16291 0.13102,0.17112 -0.1437,0.2182 -1.27349,0.2182 h -1.44064 z m 38.20235,-5.06985 v -8.90234 h 5.36845 5.36846 v 1.04735 1.0473 h -4.27801 -4.27796 v 2.61836 2.61836 h 4.11024 4.11019 v 1.13459 1.13462 h -4.11019 -4.11024 v 2.96746 2.96746 h 4.36186 4.36188 v 1.1346 1.13461 h -5.45235 -5.45233 z m 24.37656,0.30241 c -1.77133,-4.72661 -3.27041,-8.73128 -3.33129,-8.89928 -0.0992,-0.27368 0.0177,-0.30544 1.12355,-0.3053 l 1.23427,1.8e-4 2.51545,7.08536 c 1.38347,3.89696 2.55852,7.11308 2.61118,7.14691 0.0526,0.0338 1.21441,-3.15463 2.58161,-7.08552 l 2.48594,-7.1471 h 1.23599 c 0.67979,0 1.236,0.0306 1.236,0.0684 0,0.10042 -6.38257,17.43322 -6.47991,17.59711 -0.0454,0.0765 -0.51233,0.13779 -1.03743,0.13611 l -0.95477,-0.003 -3.22059,-8.5938 z m 21.75854,-0.30241 v -8.90234 h 5.36845 5.36843 v 1.04735 1.0473 h -4.27798 -4.27797 v 2.61836 2.61836 h 4.11021 4.11024 v 1.13459 1.13462 h -4.11024 -4.11021 v 2.96746 2.96746 h 4.36186 4.36185 v 1.1346 1.13461 h -5.45234 -5.4523 z m 28.53007,1.95625 -4.79147,-6.85885 -0.0438,6.9025 -0.044,6.90247 h -1.08856 -1.08854 v -8.90237 -8.90234 h 0.9982 0.99821 l 4.71694,6.76404 c 2.59434,3.72024 4.78747,6.79025 4.87358,6.82224 0.0953,0.0351 0.15655,-2.61567 0.15655,-6.76407 v -6.82221 h 1.00659 1.00661 v 8.91107 8.91106 l -0.95447,-0.0524 -0.95444,-0.0523 z m 17.43724,-1.95625 v -8.90234 h 5.45233 5.45233 v 1.04735 1.0473 h -4.27798 -4.27798 v 2.61836 2.61836 h 4.11024 4.1102 v 1.13459 1.13462 h -4.1102 -4.11024 v 2.96746 2.96746 h 4.27798 4.27798 v 1.1346 1.13461 h -5.45233 -5.45233 z m 27.5133,0 v -8.90234 h 1.09047 1.09046 v 8.90234 8.90237 h -1.09046 -1.09047 z m 51.33578,4.80031 v -4.10207 h -4.19409 -4.1941 v 4.10207 4.10206 h -1.09049 -1.09043 v -8.90237 -8.90234 h 1.09043 1.09049 v 3.75293 3.75298 h 4.1941 4.19409 v -3.75298 -3.75293 h 1.09046 1.09047 v 8.90234 8.90237 h -1.09047 -1.09046 z m 17.6152,-3.75297 v -7.85503 h -2.76808 -2.76811 v -1.0473 -1.04735 h 6.62668 6.62667 v 1.04735 1.0473 h -2.68423 -2.68422 v 7.85503 7.85503 h -1.17435 -1.17436 z m -278.480134,7.60828 c -0.410784,-0.15749 -1.222345,-0.56297 -1.803461,-0.90112 l -1.05656,-0.61476 v -1.48975 -1.48974 l 0.461348,0.37353 c 2.106463,1.70563 3.460199,2.30028 5.223489,2.29449 2.301432,-0.008 3.709938,-1.16677 3.709938,-3.05324 0,-0.58813 -0.108651,-0.91518 -0.440512,-1.3255 -0.586927,-0.72575 -1.181571,-1.0154 -4.275997,-2.08278 -3.016079,-1.04035 -3.726895,-1.53422 -4.338999,-3.0147 -0.702024,-1.69798 -0.244197,-3.57649 1.212028,-4.97312 1.090918,-1.04628 2.384313,-1.50959 4.236559,-1.51757 1.609013,-0.008 2.192021,0.13621 3.984407,0.97802 l 1.1324,0.53186 v 1.55876 1.55875 l -0.713011,-0.63505 c -0.392146,-0.34927 -1.202108,-0.88561 -1.799928,-1.19185 -0.964306,-0.49398 -1.24822,-0.5568 -2.516466,-0.5568 -1.211756,0 -1.539381,0.0656 -2.150796,0.42974 -0.864841,0.51528 -1.375767,1.31076 -1.375767,2.14205 0,1.29727 1.016751,1.96194 4.980171,3.25558 2.589861,0.84535 3.418632,1.40795 4.113871,2.79263 1.36258,2.71392 -0.405366,6.11965 -3.688011,7.10445 -1.043847,0.31316 -3.887714,0.21214 -4.894703,-0.17388 z m 69.038214,-0.0716 c -0.54733,-0.20668 -1.39667,-0.62892 -1.88735,-0.93836 l -0.89214,-0.56259 v -1.44683 c 0,-0.79578 0.0305,-1.44683 0.068,-1.44683 0.0373,0 0.3883,0.27839 0.77978,0.61871 1.62703,1.41441 3.06281,2.01667 4.81093,2.01804 1.47073,8.9e-4 2.41469,-0.38475 3.19084,-1.30457 0.47721,-0.56549 0.54523,-0.76888 0.54523,-1.63003 0,-0.93024 -0.039,-1.02272 -0.715,-1.69585 -0.62833,-0.6256 -1.0504,-0.82586 -3.4811,-1.6515 -3.10194,-1.05366 -3.96936,-1.57142 -4.64949,-2.77534 -0.3936,-0.69661 -0.46359,-1.01187 -0.45412,-2.04545 0.014,-1.49789 0.39902,-2.36018 1.50893,-3.37676 1.14244,-1.04633 2.34491,-1.47437 4.18388,-1.48938 1.5988,-0.0131 2.15997,0.12522 3.98439,0.98213 l 1.13241,0.53186 v 1.45786 c 0,0.80187 -0.0466,1.45788 -0.10377,1.45788 -0.057,0 -0.3743,-0.24719 -0.70504,-0.54937 -1.44575,-1.32075 -3.90851,-2.01297 -5.5339,-1.55536 -0.9701,0.27315 -2.00431,1.26201 -2.14689,2.05275 -0.14484,0.80353 0.2599,1.69047 0.9799,2.14721 0.30109,0.19099 1.80698,0.78437 3.34645,1.31866 3.57029,1.23906 4.45163,1.88022 4.9997,3.63726 0.28253,0.9057 0.13565,2.64254 -0.29711,3.51465 -0.6704,1.35085 -2.30261,2.64118 -3.85016,3.04368 -1.07559,0.27976 -3.69643,0.10964 -4.81446,-0.31247 z m 162.04877,-0.12998 c -1.99342,-1.0135 -3.81314,-3.45851 -4.35535,-5.8519 -1.01126,-4.46387 0.83598,-9.10079 4.34421,-10.90486 2.38652,-1.22723 4.72146,-1.19282 7.30608,0.10762 l 1.34475,0.67667 v 1.59208 1.59214 l -0.78144,-0.7157 c -0.4298,-0.39364 -1.2775,-0.96982 -1.88381,-1.2804 -0.98322,-0.50361 -1.25691,-0.56439 -2.53191,-0.56221 -1.21833,0.003 -1.55443,0.0707 -2.27508,0.4644 -1.11718,0.61036 -2.16438,1.82003 -2.81764,3.25477 -0.50149,1.10137 -0.53068,1.27714 -0.52663,3.17336 0.006,2.51521 0.34951,3.54402 1.68933,5.04976 1.1649,1.30921 2.1038,1.77973 3.55122,1.77973 1.37843,0 2.38166,-0.50356 3.1191,-1.56558 0.46432,-0.66873 0.53364,-0.92136 0.58675,-2.13834 l 0.0603,-1.38003 h -2.70199 -2.70201 v -1.04732 -1.04735 h 3.8586 3.85855 v 4.62574 4.62573 h -0.98753 -0.98752 l -0.11325,-0.7855 c -0.0622,-0.43203 -0.16109,-0.78548 -0.21958,-0.78548 -0.0584,0 -0.30778,0.20075 -0.55396,0.44613 -0.24617,0.24544 -0.89199,0.64097 -1.43517,0.879 -0.84742,0.3714 -1.18997,0.42405 -2.41359,0.371 -1.15948,-0.0503 -1.61409,-0.15748 -2.43242,-0.57352 z m -227.907501,32.52541 -4.781275,-6.84766 -0.04388,6.84829 -0.04388,6.84831 H 52.6677 51.663062 v -8.81508 -8.81507 l 0.964642,0.009 0.964643,0.009 4.697397,6.79007 c 2.583559,3.73457 4.754007,6.79426 4.823212,6.79932 0.06924,0.006 0.125838,-3.05428 0.125838,-6.79852 v -6.80766 h 1.006579 1.006588 v 8.81508 8.81508 H 64.287312 63.32267 l -4.781266,-6.84687 z m 21.809313,-1.96614 v -8.81507 h 1.174343 1.174343 v 8.81507 8.81508 h -1.174343 -1.174343 z m 24.325768,1.95938 -4.781272,-6.84696 -0.04392,6.85133 -0.04392,6.85133 H 98.802701 97.79807 v -8.81508 -8.81507 l 0.964639,0.006 0.964648,0.006 4.613493,6.64126 c 2.53744,3.65269 4.70788,6.72318 4.82323,6.82329 0.16718,0.14511 0.20968,-1.20307 0.20968,-6.64706 v -6.82905 h 1.00661 1.00656 v 8.8151 8.81506 l -0.96462,-0.004 -0.96467,-0.004 -4.78125,-6.8469 z m 17.61522,-1.95938 v -8.81507 h 5.36846 5.36843 v 1.04733 1.04735 h -4.27799 -4.27796 v 2.61834 2.61833 h 4.11022 4.11021 v 1.04732 1.04737 h -4.11021 -4.11022 v 3.05472 3.05473 h 4.36187 4.36183 v 1.04734 1.04732 h -5.45233 -5.45231 z m 27.17776,1.04734 v -7.76773 h -2.76811 -2.76812 v -1.04735 -1.04733 h 6.71058 6.71056 v 1.04733 1.04735 h -2.76812 -2.76809 v 7.76773 7.76774 h -1.17435 -1.17435 z m 18.78958,-1.04734 v -8.81507 h 5.45232 5.45233 v 1.04733 1.04735 h -4.27796 -4.27801 v 2.61834 2.61833 h 4.11023 4.11021 v 1.04732 1.04737 h -4.11021 -4.11023 v 3.05472 3.05473 h 4.27801 4.27796 v 1.04734 1.04732 h -5.45233 -5.45232 z m 28.6075,1.97352 c -2.58564,-3.71488 -4.75777,-6.75869 -4.82697,-6.76407 -0.0692,-0.006 -0.12586,3.05373 -0.12586,6.79795 v 6.80768 h -1.00656 -1.00659 v -8.81508 -8.81507 h 0.97283 0.9728 l 4.77309,6.85027 4.77314,6.85027 0.0438,-6.85027 0.0438,-6.85027 h 1.08854 1.08851 v 8.82341 8.8234 l -1.04477,-0.052 -1.04479,-0.052 z m 17.52758,-1.97352 v -8.81507 h 5.36845 5.36845 v 1.04733 1.04735 h -4.27799 -4.27798 v 2.61834 2.61833 h 4.19408 4.19412 v 1.04732 1.04737 h -4.19412 -4.19408 v 3.05472 3.05473 h 4.36186 4.36186 v 1.04734 1.04732 h -5.45233 -5.45232 z m 23.48696,0 v -8.81507 h 1.17435 1.17433 v 7.76774 7.76775 h 4.02635 4.02632 v 1.04734 1.04732 h -5.20068 -5.20067 z m 22.64814,0 v -8.81507 h 5.36844 5.36844 v 1.04733 1.04735 h -4.27799 -4.27796 v 2.61834 2.61833 h 4.19409 4.19412 v 1.04732 1.04737 h -4.19412 -4.19409 v 3.05472 3.05473 h 4.36185 4.36186 v 1.04734 1.04732 h -5.45232 -5.45232 z m 24.30608,0.042 -3.29109,-8.76972 1.1723,-0.0516 c 0.64477,-0.0283 1.20231,-0.0205 1.239,0.0177 0.0366,0.0383 1.16759,3.1642 2.51301,6.94669 1.34548,3.7825 2.5004,6.97914 2.56649,7.10367 0.0692,0.13037 1.18045,-2.81295 2.61973,-6.93864 l 2.49956,-7.16499 h 1.22209 c 0.67214,0 1.22208,0.0413 1.22208,0.0918 0,0.0505 -1.29103,3.60491 -2.86893,7.89868 -1.57791,4.29376 -3.01775,8.21927 -3.19957,8.72327 l -0.33064,0.91641 -1.03649,-8.9e-4 -1.03646,-8.8e-4 -3.29108,-8.76972 z m 21.829,-0.042 v -8.81507 h 5.36846 5.36843 v 1.04733 1.04735 h -4.27797 -4.27799 v 2.61834 2.61833 h 4.11021 4.11023 v 1.04732 1.04737 h -4.11023 -4.11021 v 3.05472 3.05473 h 4.36188 4.36186 v 1.04734 1.04732 h -5.45234 -5.45233 z m 28.62111,2.08616 c -2.57403,-3.69762 -4.74448,-6.76436 -4.82324,-6.815 -0.0788,-0.0507 -0.14316,2.97604 -0.14316,6.72593 v 6.81799 h -1.00656 -1.00659 v -8.81508 -8.81507 l 0.96463,0.006 0.96465,0.006 4.61352,6.63829 c 2.5374,3.65105 4.70786,6.72164 4.8232,6.82349 0.16723,0.14768 0.20972,-1.19821 0.20972,-6.64386 v -6.82905 h 1.00656 1.0066 v 8.81509 8.81507 l -0.96464,-0.003 -0.96465,-0.003 -4.68004,-6.72289 z M 57.367032,238.05259 v -7.76774 h -2.768108 -2.768105 v -1.04735 -1.04734 h 6.626676 6.626675 v 1.04734 1.04735 h -2.768106 -2.768107 v 7.76774 7.76771 h -1.090462 -1.090463 z m 26.100577,0.83165 c -1.02227,-3.76687 -1.896449,-6.84913 -1.942574,-6.84949 -0.04613,0 -0.797346,2.72816 -1.669375,6.0633 -0.872007,3.3352 -1.690255,6.44068 -1.818305,6.90107 l -0.232839,0.83704 -1.026892,-0.0515 -1.026913,-0.0515 -2.544884,-8.77867 -2.544912,-8.77867 1.178185,0.0507 1.178183,0.051 1.848964,6.67678 c 1.016917,3.6722 1.893137,6.67631 1.947137,6.67578 0.05393,0 0.8949,-3.00505 1.868724,-6.67675 l 1.77056,-6.67581 1.024621,-0.0515 1.024621,-0.0515 0.261753,0.92434 c 0.143959,0.5084 0.993165,3.53614 1.887094,6.72834 0.89393,3.19219 1.669855,5.80364 1.724325,5.8032 0.05433,0 0.925426,-3.02462 1.93554,-6.72039 l 1.836516,-6.71964 h 1.151181 c 0.633146,0 1.117532,0.0591 1.07637,0.13092 -0.04112,0.0719 -1.143967,3.94061 -2.450733,8.59689 -1.306756,4.65626 -2.408979,8.56792 -2.449371,8.69252 -0.05223,0.161 -0.373846,0.21154 -1.11086,0.17458 l -1.037408,-0.0522 z m 15.672645,-1.87899 v -8.81509 h 5.452326 5.45234 v 1.04734 1.04735 h -4.36186 -4.36188 v 2.61833 2.61834 h 4.19411 4.1941 v 1.04735 1.04733 h -4.1941 -4.19411 v 3.05473 3.05472 h 4.36188 4.36186 v 1.04733 1.04732 h -5.45234 -5.452326 z m 23.486936,0 v -8.81509 h 1.17436 1.17437 v 7.76774 7.76775 h 4.02631 4.02634 v 1.04733 1.04732 h -5.20068 -5.2007 z m 27.13069,8.59686 c -1.51636,-3.98643 -6.4957,-17.27063 -6.4957,-17.32955 0,-0.0453 0.54732,-0.0813 1.21629,-0.0799 l 1.21629,0.003 2.41721,6.8489 c 1.32946,3.76688 2.49012,6.99944 2.57927,7.18348 0.1295,0.26745 0.52795,-0.71322 1.98561,-4.88758 1.00295,-2.87219 2.13421,-6.10584 2.51388,-7.18591 l 0.69035,-1.96376 h 1.2539 c 0.68965,0 1.22876,0.0708 1.19799,0.15709 -0.0307,0.0865 -1.49011,4.05319 -3.24298,8.81507 l -3.18707,8.65799 h -1.03103 c -0.66872,0 -1.0602,-0.0766 -1.11401,-0.21819 z m 18.50114,-8.59686 v -8.81509 h 5.45232 5.45233 v 1.04734 1.04735 h -4.27796 -4.27801 v 2.61833 2.61834 h 4.11023 4.11021 v 1.04735 1.04733 h -4.11021 -4.11023 v 3.05473 3.05472 h 4.27801 4.27796 v 1.04733 1.04732 h -5.45233 -5.45232 z m 23.48693,0 v -8.81509 h 1.17435 1.17436 v 7.76774 7.76775 h 4.02634 4.02632 v 1.04733 1.04732 h -5.20069 -5.20068 z m 69.28652,0 v -8.81509 h 1.09047 1.09047 v 7.76774 7.76775 h 4.02634 4.02633 v 1.04733 1.04732 h -5.11681 -5.1168 z m 75.32781,4.49482 c -1.59586,-2.37613 -2.93066,-4.35514 -2.96612,-4.39776 -0.0355,-0.0427 -0.55322,0.42638 -1.15048,1.0423 l -1.08586,1.11977 v 3.27798 3.27794 h -1.09047 -1.09046 v -8.81505 -8.81509 h 1.09046 1.09047 l 0.008,4.05844 0.008,4.05841 3.80824,-4.06161 3.80827,-4.06165 1.50835,0.003 1.50834,0.003 -3.38761,3.53479 -3.38762,3.53475 2.21868,3.31656 c 1.22025,1.82411 2.8066,4.20026 3.52527,5.28032 l 1.30661,1.96375 h -1.41061 -1.41062 l -2.90159,-4.32026 z m -115.17173,2.18592 c 1.35925,-0.50413 2.44611,-1.64818 3.23984,-3.41035 0.41489,-0.92105 0.4507,-1.17574 0.44761,-3.1831 -0.005,-2.81037 -0.32788,-3.75806 -1.82479,-5.34492 -0.84768,-0.89861 -1.19348,-1.13607 -2.00966,-1.38015 -3.04664,-0.91098 -5.83336,1.62631 -6.30945,5.74468 -0.27356,2.36649 0.34753,4.60818 1.70206,6.14318 1.26757,1.43638 3.184,2.01308 4.75439,1.43066 z m -4.11312,1.84505 c -2.08285,-1.02414 -3.68876,-2.98581 -4.40142,-5.37655 -0.47695,-1.59986 -0.50551,-4.39366 -0.0608,-5.94215 0.96269,-3.35219 3.24707,-5.6778 6.1239,-6.23447 3.66794,-0.70977 7.38139,2.1541 8.42352,6.49633 0.35641,1.48491 0.28379,4.2082 -0.15182,5.69401 -0.62191,2.1214 -2.26152,4.25608 -3.97486,5.17512 -1.2296,0.65953 -1.96439,0.82447 -3.4421,0.77263 -1.18373,-0.0415 -1.61546,-0.1419 -2.51645,-0.58492 z m 24.81346,0.28281 c -2.05971,-0.72197 -3.80495,-2.3493 -4.75559,-4.4343 -2.5972,-5.69648 0.44693,-12.49406 5.99718,-13.39187 1.72616,-0.27921 3.15158,-0.0188 4.94224,0.90324 l 1.38404,0.71261 v 1.59798 1.59797 l -0.62911,-0.619 c -0.93876,-0.92365 -1.53841,-1.30475 -2.68567,-1.70692 -2.19817,-0.77046 -3.92294,-0.36874 -5.50103,1.2813 -1.46904,1.53601 -2.08065,3.07929 -2.08065,5.25039 0,2.00395 0.55936,3.55622 1.79808,4.98975 1.14758,1.32806 2.16403,1.81098 3.81384,1.81197 1.64123,8.9e-4 2.6612,-0.33985 4.17205,-1.39414 l 1.11249,-0.77632 v 1.38968 c 0,1.57809 -0.005,1.58305 -1.67763,2.28377 -2.21747,0.92824 -4.19659,1.09756 -5.89024,0.50389 z m 48.57096,-2.17758 c 3.85257,-1.53145 4.97247,-7.94339 2.03813,-11.66934 -2.63699,-3.34839 -7.27396,-1.76207 -8.41682,2.87945 -0.37075,1.50586 -0.25106,4.07007 0.25323,5.42335 0.44103,1.18357 1.63886,2.63166 2.59874,3.14165 0.88906,0.47236 2.62556,0.5831 3.52672,0.22489 z m -4.39313,1.82757 c -2.11085,-1.07488 -3.8346,-3.39094 -4.41165,-5.92752 -0.27949,-1.22869 -0.28038,-3.6527 -0.002,-4.88758 0.77556,-3.43782 3.2508,-6.09969 6.20325,-6.671 3.78188,-0.73179 7.58386,2.29527 8.48844,6.75828 1.00109,4.9393 -1.24086,9.59123 -5.36443,11.13085 -1.35705,0.50668 -3.46719,0.3336 -4.91381,-0.40303 z m 24.09367,-0.0361 c -2.81631,-1.45401 -4.56053,-4.2653 -4.78076,-7.70559 -0.30466,-4.75856 2.57925,-8.91726 6.7432,-9.72388 1.77436,-0.34374 3.95722,0.0998 5.68965,1.15622 l 0.76305,0.46527 v 1.4882 1.48815 l -0.713,-0.59852 c -2.93992,-2.46789 -6.16077,-2.5012 -8.30055,-0.0857 -3.82713,4.32002 -1.32884,11.98845 3.90575,11.98845 1.10452,0 2.81675,-0.63491 4.01593,-1.48914 l 1.09187,-0.77776 v 1.4592 1.45918 l -1.19504,0.55597 c -1.73946,0.80928 -2.86977,1.05946 -4.53586,1.00407 -1.28341,-0.0428 -1.59662,-0.12247 -2.68424,-0.68399 z"
       inkscape:connector-curvature="0" />
  </g>
</svg>
