<?xml version="1.0" encoding="UTF-8" standalone="no"?>
<!-- Created with Inkscape (http://www.inkscape.org/) -->

<svg
   xmlns:dc="http://purl.org/dc/elements/1.1/"
   xmlns:cc="http://creativecommons.org/ns#"
   xmlns:rdf="http://www.w3.org/1999/02/22-rdf-syntax-ns#"
   xmlns:svg="http://www.w3.org/2000/svg"
   xmlns="http://www.w3.org/2000/svg"
   xmlns:sodipodi="http://sodipodi.sourceforge.net/DTD/sodipodi-0.dtd"
   xmlns:inkscape="http://www.inkscape.org/namespaces/inkscape"
   width="32in"
   height="18in"
   viewBox="0 0 812.80002 457.20001"
   version="1.1"
   id="svg9744"
   inkscape:version="0.92.3 (2405546, 2018-03-11)"
   sodipodi:docname="wood18x32x1_4.svg">
  <defs
     id="defs9738" />
  <sodipodi:namedview
     id="base"
     pagecolor="#ffffff"
     bordercolor="#666666"
     borderopacity="1.0"
     inkscape:pageopacity="0.0"
     inkscape:pageshadow="2"
     inkscape:zoom="0.5"
     inkscape:cx="822.133"
     inkscape:cy="931.89175"
     inkscape:document-units="in"
     inkscape:current-layer="layer1"
     showgrid="false"
     units="in"
     inkscape:window-width="1920"
     inkscape:window-height="1001"
     inkscape:window-x="-9"
     inkscape:window-y="-9"
     inkscape:window-maximized="1" />
  <metadata
     id="metadata9741">
    <rdf:RDF>
      <cc:Work
         rdf:about="">
        <dc:format>image/svg+xml</dc:format>
        <dc:type
           rdf:resource="http://purl.org/dc/dcmitype/StillImage" />
        <dc:title />
      </cc:Work>
    </rdf:RDF>
  </metadata>
  <g
     inkscape:label="Layer 1"
     inkscape:groupmode="layer"
     id="layer1"
     transform="translate(0,160.20002)">
    <g
       aria-label="5mm"
       transform="rotate(-90)"
       style="font-style:normal;font-weight:normal;font-size:6.35000038px;line-height:1.25;font-family:sans-serif;letter-spacing:0px;word-spacing:0px;fill:#000000;fill-opacity:1;stroke:none;stroke-width:0.25400001;stroke-miterlimit:4;stroke-dasharray:none"
       id="text10329" />
    <g
       aria-label="1/4in"
       transform="rotate(90,-64.431124,127.9311)"
       style="font-style:normal;font-weight:normal;font-size:6.35000038px;line-height:1.25;font-family:sans-serif;letter-spacing:0px;word-spacing:0px;fill:#000000;fill-opacity:1;stroke:none;stroke-width:0.25400001;stroke-miterlimit:4;stroke-dasharray:none"
       id="text10333">
      <path
         id="path10350"
         style="font-size:6.35000038px;stroke-width:0.25400001;stroke-miterlimit:4;stroke-dasharray:none"
         d="m -35.333529,12.945204 h -0.58291 v -1.971973 q 0,-0.238745 -0.02791,-0.446485 -0.0279,-0.210839 -0.102319,-0.328662 -0.07751,-0.130224 -0.223243,-0.192236 -0.145727,-0.06511 -0.378271,-0.06511 -0.238745,0 -0.499194,0.117822 -0.26045,0.117822 -0.499195,0.300757 v 2.585889 h -0.58291 V 9.4818492 h 0.58291 v 0.3844731 q 0.272852,-0.2263432 0.564307,-0.3534673 0.291455,-0.127124 0.598413,-0.127124 0.561206,0 0.855762,0.3379639 0.294555,0.3379631 0.294555,0.9735841 z m -4.018359,-4.0431644 h -0.657324 V 8.2974253 h 0.657324 z m -0.03721,4.0431644 h -0.58291 V 9.4818492 h 0.58291 z m -1.475876,-1.299146 h -0.685229 v 1.299146 h -0.595313 v -1.299146 h -2.210718 v -0.713135 l 2.235523,-2.6044919 h 0.570508 v 2.8215329 h 0.685229 z m -1.280542,-0.496094 V 9.0663706 l -1.789038,2.0835934 z m -2.672705,-3.0292721 -2.22312,5.7670901 h -0.536402 l 2.213819,-5.7670901 z m -3.348633,4.8245121 h -2.499072 v -0.47129 h 0.961181 V 9.3795298 h -0.961181 V 8.9578501 q 0.195337,0 0.418579,-0.031006 0.223242,-0.034107 0.337964,-0.096118 0.142627,-0.077515 0.223242,-0.1953369 0.08372,-0.1209229 0.09612,-0.322461 h 0.480591 v 4.1609858 h 0.942578 z m 12.800769,35.987988 h -0.58291 v -1.971973 q 0,-0.223242 -0.0217,-0.430981 -0.0186,-0.207739 -0.08372,-0.331763 -0.07131,-0.133325 -0.204639,-0.201538 -0.133325,-0.06821 -0.384472,-0.06821 -0.244947,0 -0.489893,0.124024 -0.244946,0.120922 -0.489892,0.310058 0.0093,0.07131 0.0155,0.167432 0.0062,0.09302 0.0062,0.186035 v 2.216919 h -0.582911 v -1.971973 q 0,-0.229443 -0.0217,-0.434082 -0.0186,-0.207739 -0.08372,-0.331762 -0.07131,-0.133326 -0.204639,-0.198438 -0.133325,-0.06821 -0.384473,-0.06821 -0.238745,0 -0.480591,0.117822 -0.238745,0.117823 -0.47749,0.300757 v 2.585889 h -0.58291 v -3.463355 h 0.58291 v 0.384473 q 0.272852,-0.226343 0.542603,-0.353467 0.272851,-0.127124 0.579809,-0.127124 0.353467,0 0.598413,0.148828 0.248047,0.148828 0.36897,0.412378 0.353467,-0.297656 0.644922,-0.427881 0.291455,-0.133325 0.623218,-0.133325 0.570508,0 0.840259,0.347266 0.272851,0.344165 0.272851,0.964282 z m -6.176367,0 h -0.582911 v -1.971973 q 0,-0.223242 -0.0217,-0.430981 -0.0186,-0.207739 -0.08372,-0.331763 -0.07131,-0.133325 -0.204638,-0.201538 -0.133325,-0.06821 -0.384473,-0.06821 -0.244946,0 -0.489893,0.124024 -0.244946,0.120922 -0.489892,0.310058 0.0093,0.07131 0.0155,0.167432 0.0062,0.09302 0.0062,0.186035 v 2.216919 h -0.58291 v -1.971973 q 0,-0.229443 -0.0217,-0.434082 -0.0186,-0.207739 -0.08372,-0.331762 -0.07131,-0.133326 -0.204639,-0.198438 -0.133325,-0.06821 -0.384473,-0.06821 -0.238745,0 -0.48059,0.117822 -0.238746,0.117823 -0.477491,0.300757 v 2.585889 h -0.58291 v -3.463355 h 0.58291 v 0.384473 q 0.272852,-0.226343 0.542603,-0.353467 0.272851,-0.127124 0.57981,-0.127124 0.353466,0 0.598413,0.148828 0.248047,0.148828 0.368969,0.412378 0.353467,-0.297656 0.644922,-0.427881 0.291455,-0.133325 0.623218,-0.133325 0.570508,0 0.840259,0.347266 0.272852,0.344165 0.272852,0.964282 z m -6.08335,-1.466577 q 0,0.322461 -0.117823,0.617016 -0.117822,0.294556 -0.322461,0.496094 -0.223242,0.217041 -0.5333,0.334864 -0.306958,0.114721 -0.713135,0.114721 -0.378272,0 -0.728638,-0.08062 -0.350366,-0.07751 -0.592212,-0.189136 v -0.654223 h 0.04341 q 0.254248,0.16123 0.595313,0.275952 0.341064,0.111621 0.669726,0.111621 0.220142,0 0.424781,-0.06201 0.207739,-0.06201 0.368969,-0.217041 0.136426,-0.133325 0.204639,-0.31936 0.07131,-0.186035 0.07131,-0.430982 0,-0.238745 -0.08372,-0.403076 -0.08062,-0.164331 -0.226343,-0.26355 -0.16123,-0.117822 -0.393774,-0.164331 -0.229444,-0.04961 -0.514698,-0.04961 -0.272851,0 -0.527099,0.03721 -0.251148,0.03721 -0.434082,0.07441 v -2.37815 h 2.778125 v 0.542603 h -2.179712 v 1.227832 q 0.133325,-0.0124 0.272851,-0.0186 0.139527,-0.0062 0.241846,-0.0062 0.375171,0 0.657324,0.06511 0.282154,0.06201 0.517798,0.223242 0.248047,0.170532 0.384473,0.440283 0.136426,0.269751 0.136426,0.675928 z"
         inkscape:connector-curvature="0" />
    </g>
    <g
       aria-label="1/4in"
       transform="rotate(-90,225.42513,-231.77483)"
       style="font-style:normal;font-weight:normal;font-size:6.35000038px;line-height:1.25;font-family:sans-serif;letter-spacing:0px;word-spacing:0px;fill:#000000;fill-opacity:1;stroke:none;stroke-width:0.25400001;stroke-miterlimit:4;stroke-dasharray:none"
       id="g10367">
      <path
         id="path10365"
         style="font-size:6.35000038px;stroke-width:0.25400001;stroke-miterlimit:4;stroke-dasharray:none"
         d="m -35.333529,12.945204 h -0.58291 v -1.971973 q 0,-0.238745 -0.02791,-0.446485 -0.0279,-0.210839 -0.102319,-0.328662 -0.07751,-0.130224 -0.223243,-0.192236 -0.145727,-0.06511 -0.378271,-0.06511 -0.238745,0 -0.499194,0.117822 -0.26045,0.117822 -0.499195,0.300757 v 2.585889 h -0.58291 V 9.4818492 h 0.58291 v 0.3844731 q 0.272852,-0.2263432 0.564307,-0.3534673 0.291455,-0.127124 0.598413,-0.127124 0.561206,0 0.855762,0.3379639 0.294555,0.3379631 0.294555,0.9735841 z m -4.018359,-4.0431644 h -0.657324 V 8.2974253 h 0.657324 z m -0.03721,4.0431644 h -0.58291 V 9.4818492 h 0.58291 z m -1.475876,-1.299146 h -0.685229 v 1.299146 h -0.595313 v -1.299146 h -2.210718 v -0.713135 l 2.235523,-2.6044919 h 0.570508 v 2.8215329 h 0.685229 z m -1.280542,-0.496094 V 9.0663706 l -1.789038,2.0835934 z m -2.672705,-3.0292721 -2.22312,5.7670901 h -0.536402 l 2.213819,-5.7670901 z m -3.348633,4.8245121 h -2.499072 v -0.47129 h 0.961181 V 9.3795298 h -0.961181 V 8.9578501 q 0.195337,0 0.418579,-0.031006 0.223242,-0.034107 0.337964,-0.096118 0.142627,-0.077515 0.223242,-0.1953369 0.08372,-0.1209229 0.09612,-0.322461 h 0.480591 v 4.1609858 h 0.942578 z m 12.800769,35.987988 h -0.58291 v -1.971973 q 0,-0.223242 -0.0217,-0.430981 -0.0186,-0.207739 -0.08372,-0.331763 -0.07131,-0.133325 -0.204639,-0.201538 -0.133325,-0.06821 -0.384472,-0.06821 -0.244947,0 -0.489893,0.124024 -0.244946,0.120922 -0.489892,0.310058 0.0093,0.07131 0.0155,0.167432 0.0062,0.09302 0.0062,0.186035 v 2.216919 h -0.582911 v -1.971973 q 0,-0.229443 -0.0217,-0.434082 -0.0186,-0.207739 -0.08372,-0.331762 -0.07131,-0.133326 -0.204639,-0.198438 -0.133325,-0.06821 -0.384473,-0.06821 -0.238745,0 -0.480591,0.117822 -0.238745,0.117823 -0.47749,0.300757 v 2.585889 h -0.58291 v -3.463355 h 0.58291 v 0.384473 q 0.272852,-0.226343 0.542603,-0.353467 0.272851,-0.127124 0.579809,-0.127124 0.353467,0 0.598413,0.148828 0.248047,0.148828 0.36897,0.412378 0.353467,-0.297656 0.644922,-0.427881 0.291455,-0.133325 0.623218,-0.133325 0.570508,0 0.840259,0.347266 0.272851,0.344165 0.272851,0.964282 z m -6.176367,0 h -0.582911 v -1.971973 q 0,-0.223242 -0.0217,-0.430981 -0.0186,-0.207739 -0.08372,-0.331763 -0.07131,-0.133325 -0.204638,-0.201538 -0.133325,-0.06821 -0.384473,-0.06821 -0.244946,0 -0.489893,0.124024 -0.244946,0.120922 -0.489892,0.310058 0.0093,0.07131 0.0155,0.167432 0.0062,0.09302 0.0062,0.186035 v 2.216919 h -0.58291 v -1.971973 q 0,-0.229443 -0.0217,-0.434082 -0.0186,-0.207739 -0.08372,-0.331762 -0.07131,-0.133326 -0.204639,-0.198438 -0.133325,-0.06821 -0.384473,-0.06821 -0.238745,0 -0.48059,0.117822 -0.238746,0.117823 -0.477491,0.300757 v 2.585889 h -0.58291 v -3.463355 h 0.58291 v 0.384473 q 0.272852,-0.226343 0.542603,-0.353467 0.272851,-0.127124 0.57981,-0.127124 0.353466,0 0.598413,0.148828 0.248047,0.148828 0.368969,0.412378 0.353467,-0.297656 0.644922,-0.427881 0.291455,-0.133325 0.623218,-0.133325 0.570508,0 0.840259,0.347266 0.272852,0.344165 0.272852,0.964282 z m -6.08335,-1.466577 q 0,0.322461 -0.117823,0.617016 -0.117822,0.294556 -0.322461,0.496094 -0.223242,0.217041 -0.5333,0.334864 -0.306958,0.114721 -0.713135,0.114721 -0.378272,0 -0.728638,-0.08062 -0.350366,-0.07751 -0.592212,-0.189136 v -0.654223 h 0.04341 q 0.254248,0.16123 0.595313,0.275952 0.341064,0.111621 0.669726,0.111621 0.220142,0 0.424781,-0.06201 0.207739,-0.06201 0.368969,-0.217041 0.136426,-0.133325 0.204639,-0.31936 0.07131,-0.186035 0.07131,-0.430982 0,-0.238745 -0.08372,-0.403076 -0.08062,-0.164331 -0.226343,-0.26355 -0.16123,-0.117822 -0.393774,-0.164331 -0.229444,-0.04961 -0.514698,-0.04961 -0.272851,0 -0.527099,0.03721 -0.251148,0.03721 -0.434082,0.07441 v -2.37815 h 2.778125 v 0.542603 h -2.179712 v 1.227832 q 0.133325,-0.0124 0.272851,-0.0186 0.139527,-0.0062 0.241846,-0.0062 0.375171,0 0.657324,0.06511 0.282154,0.06201 0.517798,0.223242 0.248047,0.170532 0.384473,0.440283 0.136426,0.269751 0.136426,0.675928 z"
         inkscape:connector-curvature="0" />
    </g>
    <g
       id="g10371"
       style="font-style:normal;font-weight:normal;font-size:6.35000038px;line-height:1.25;font-family:sans-serif;letter-spacing:0px;word-spacing:0px;fill:#000000;fill-opacity:1;stroke:none;stroke-width:0.25400001;stroke-miterlimit:4;stroke-dasharray:none"
       transform="rotate(-90,256.64598,-264.05402)"
       aria-label="1/4in">
      <path
         inkscape:connector-curvature="0"
         d="m -35.333529,12.945204 h -0.58291 v -1.971973 q 0,-0.238745 -0.02791,-0.446485 -0.0279,-0.210839 -0.102319,-0.328662 -0.07751,-0.130224 -0.223243,-0.192236 -0.145727,-0.06511 -0.378271,-0.06511 -0.238745,0 -0.499194,0.117822 -0.26045,0.117822 -0.499195,0.300757 v 2.585889 h -0.58291 V 9.4818492 h 0.58291 v 0.3844731 q 0.272852,-0.2263432 0.564307,-0.3534673 0.291455,-0.127124 0.598413,-0.127124 0.561206,0 0.855762,0.3379639 0.294555,0.3379631 0.294555,0.9735841 z m -4.018359,-4.0431644 h -0.657324 V 8.2974253 h 0.657324 z m -0.03721,4.0431644 h -0.58291 V 9.4818492 h 0.58291 z m -1.475876,-1.299146 h -0.685229 v 1.299146 h -0.595313 v -1.299146 h -2.210718 v -0.713135 l 2.235523,-2.6044919 h 0.570508 v 2.8215329 h 0.685229 z m -1.280542,-0.496094 V 9.0663706 l -1.789038,2.0835934 z m -2.672705,-3.0292721 -2.22312,5.7670901 h -0.536402 l 2.213819,-5.7670901 z m -3.348633,4.8245121 h -2.499072 v -0.47129 h 0.961181 V 9.3795298 h -0.961181 V 8.9578501 q 0.195337,0 0.418579,-0.031006 0.223242,-0.034107 0.337964,-0.096118 0.142627,-0.077515 0.223242,-0.1953369 0.08372,-0.1209229 0.09612,-0.322461 h 0.480591 v 4.1609858 h 0.942578 z m 12.800769,35.987988 h -0.58291 v -1.971973 q 0,-0.223242 -0.0217,-0.430981 -0.0186,-0.207739 -0.08372,-0.331763 -0.07131,-0.133325 -0.204639,-0.201538 -0.133325,-0.06821 -0.384472,-0.06821 -0.244947,0 -0.489893,0.124024 -0.244946,0.120922 -0.489892,0.310058 0.0093,0.07131 0.0155,0.167432 0.0062,0.09302 0.0062,0.186035 v 2.216919 h -0.582911 v -1.971973 q 0,-0.229443 -0.0217,-0.434082 -0.0186,-0.207739 -0.08372,-0.331762 -0.07131,-0.133326 -0.204639,-0.198438 -0.133325,-0.06821 -0.384473,-0.06821 -0.238745,0 -0.480591,0.117822 -0.238745,0.117823 -0.47749,0.300757 v 2.585889 h -0.58291 v -3.463355 h 0.58291 v 0.384473 q 0.272852,-0.226343 0.542603,-0.353467 0.272851,-0.127124 0.579809,-0.127124 0.353467,0 0.598413,0.148828 0.248047,0.148828 0.36897,0.412378 0.353467,-0.297656 0.644922,-0.427881 0.291455,-0.133325 0.623218,-0.133325 0.570508,0 0.840259,0.347266 0.272851,0.344165 0.272851,0.964282 z m -6.176367,0 h -0.582911 v -1.971973 q 0,-0.223242 -0.0217,-0.430981 -0.0186,-0.207739 -0.08372,-0.331763 -0.07131,-0.133325 -0.204638,-0.201538 -0.133325,-0.06821 -0.384473,-0.06821 -0.244946,0 -0.489893,0.124024 -0.244946,0.120922 -0.489892,0.310058 0.0093,0.07131 0.0155,0.167432 0.0062,0.09302 0.0062,0.186035 v 2.216919 h -0.58291 v -1.971973 q 0,-0.229443 -0.0217,-0.434082 -0.0186,-0.207739 -0.08372,-0.331762 -0.07131,-0.133326 -0.204639,-0.198438 -0.133325,-0.06821 -0.384473,-0.06821 -0.238745,0 -0.48059,0.117822 -0.238746,0.117823 -0.477491,0.300757 v 2.585889 h -0.58291 v -3.463355 h 0.58291 v 0.384473 q 0.272852,-0.226343 0.542603,-0.353467 0.272851,-0.127124 0.57981,-0.127124 0.353466,0 0.598413,0.148828 0.248047,0.148828 0.368969,0.412378 0.353467,-0.297656 0.644922,-0.427881 0.291455,-0.133325 0.623218,-0.133325 0.570508,0 0.840259,0.347266 0.272852,0.344165 0.272852,0.964282 z m -6.08335,-1.466577 q 0,0.322461 -0.117823,0.617016 -0.117822,0.294556 -0.322461,0.496094 -0.223242,0.217041 -0.5333,0.334864 -0.306958,0.114721 -0.713135,0.114721 -0.378272,0 -0.728638,-0.08062 -0.350366,-0.07751 -0.592212,-0.189136 v -0.654223 h 0.04341 q 0.254248,0.16123 0.595313,0.275952 0.341064,0.111621 0.669726,0.111621 0.220142,0 0.424781,-0.06201 0.207739,-0.06201 0.368969,-0.217041 0.136426,-0.133325 0.204639,-0.31936 0.07131,-0.186035 0.07131,-0.430982 0,-0.238745 -0.08372,-0.403076 -0.08062,-0.164331 -0.226343,-0.26355 -0.16123,-0.117822 -0.393774,-0.164331 -0.229444,-0.04961 -0.514698,-0.04961 -0.272851,0 -0.527099,0.03721 -0.251148,0.03721 -0.434082,0.07441 v -2.37815 h 2.778125 v 0.542603 h -2.179712 v 1.227832 q 0.133325,-0.0124 0.272851,-0.0186 0.139527,-0.0062 0.241846,-0.0062 0.375171,0 0.657324,0.06511 0.282154,0.06201 0.517798,0.223242 0.248047,0.170532 0.384473,0.440283 0.136426,0.269751 0.136426,0.675928 z"
         style="font-size:6.35000038px;stroke-width:0.25400001;stroke-miterlimit:4;stroke-dasharray:none"
         id="path10369" />
    </g>
    <g
       aria-label="1/4in"
       transform="translate(303.34971,233.50001)"
       style="font-style:normal;font-weight:normal;font-size:6.35000038px;line-height:1.25;font-family:sans-serif;letter-spacing:0px;word-spacing:0px;fill:#000000;fill-opacity:1;stroke:none;stroke-width:0.25400001;stroke-miterlimit:4;stroke-dasharray:none"
       id="g10375">
      <path
         id="path10373"
         style="font-size:6.35000038px;stroke-width:0.25400001;stroke-miterlimit:4;stroke-dasharray:none"
         d="m -35.333529,12.945204 h -0.58291 v -1.971973 q 0,-0.238745 -0.02791,-0.446485 -0.0279,-0.210839 -0.102319,-0.328662 -0.07751,-0.130224 -0.223243,-0.192236 -0.145727,-0.06511 -0.378271,-0.06511 -0.238745,0 -0.499194,0.117822 -0.26045,0.117822 -0.499195,0.300757 v 2.585889 h -0.58291 V 9.4818492 h 0.58291 v 0.3844731 q 0.272852,-0.2263432 0.564307,-0.3534673 0.291455,-0.127124 0.598413,-0.127124 0.561206,0 0.855762,0.3379639 0.294555,0.3379631 0.294555,0.9735841 z m -4.018359,-4.0431644 h -0.657324 V 8.2974253 h 0.657324 z m -0.03721,4.0431644 h -0.58291 V 9.4818492 h 0.58291 z m -1.475876,-1.299146 h -0.685229 v 1.299146 h -0.595313 v -1.299146 h -2.210718 v -0.713135 l 2.235523,-2.6044919 h 0.570508 v 2.8215329 h 0.685229 z m -1.280542,-0.496094 V 9.0663706 l -1.789038,2.0835934 z m -2.672705,-3.0292721 -2.22312,5.7670901 h -0.536402 l 2.213819,-5.7670901 z m -3.348633,4.8245121 h -2.499072 v -0.47129 h 0.961181 V 9.3795298 h -0.961181 V 8.9578501 q 0.195337,0 0.418579,-0.031006 0.223242,-0.034107 0.337964,-0.096118 0.142627,-0.077515 0.223242,-0.1953369 0.08372,-0.1209229 0.09612,-0.322461 h 0.480591 v 4.1609858 h 0.942578 z m 12.800769,35.987988 h -0.58291 v -1.971973 q 0,-0.223242 -0.0217,-0.430981 -0.0186,-0.207739 -0.08372,-0.331763 -0.07131,-0.133325 -0.204639,-0.201538 -0.133325,-0.06821 -0.384472,-0.06821 -0.244947,0 -0.489893,0.124024 -0.244946,0.120922 -0.489892,0.310058 0.0093,0.07131 0.0155,0.167432 0.0062,0.09302 0.0062,0.186035 v 2.216919 h -0.582911 v -1.971973 q 0,-0.229443 -0.0217,-0.434082 -0.0186,-0.207739 -0.08372,-0.331762 -0.07131,-0.133326 -0.204639,-0.198438 -0.133325,-0.06821 -0.384473,-0.06821 -0.238745,0 -0.480591,0.117822 -0.238745,0.117823 -0.47749,0.300757 v 2.585889 h -0.58291 v -3.463355 h 0.58291 v 0.384473 q 0.272852,-0.226343 0.542603,-0.353467 0.272851,-0.127124 0.579809,-0.127124 0.353467,0 0.598413,0.148828 0.248047,0.148828 0.36897,0.412378 0.353467,-0.297656 0.644922,-0.427881 0.291455,-0.133325 0.623218,-0.133325 0.570508,0 0.840259,0.347266 0.272851,0.344165 0.272851,0.964282 z m -6.176367,0 h -0.582911 v -1.971973 q 0,-0.223242 -0.0217,-0.430981 -0.0186,-0.207739 -0.08372,-0.331763 -0.07131,-0.133325 -0.204638,-0.201538 -0.133325,-0.06821 -0.384473,-0.06821 -0.244946,0 -0.489893,0.124024 -0.244946,0.120922 -0.489892,0.310058 0.0093,0.07131 0.0155,0.167432 0.0062,0.09302 0.0062,0.186035 v 2.216919 h -0.58291 v -1.971973 q 0,-0.229443 -0.0217,-0.434082 -0.0186,-0.207739 -0.08372,-0.331762 -0.07131,-0.133326 -0.204639,-0.198438 -0.133325,-0.06821 -0.384473,-0.06821 -0.238745,0 -0.48059,0.117822 -0.238746,0.117823 -0.477491,0.300757 v 2.585889 h -0.58291 v -3.463355 h 0.58291 v 0.384473 q 0.272852,-0.226343 0.542603,-0.353467 0.272851,-0.127124 0.57981,-0.127124 0.353466,0 0.598413,0.148828 0.248047,0.148828 0.368969,0.412378 0.353467,-0.297656 0.644922,-0.427881 0.291455,-0.133325 0.623218,-0.133325 0.570508,0 0.840259,0.347266 0.272852,0.344165 0.272852,0.964282 z m -6.08335,-1.466577 q 0,0.322461 -0.117823,0.617016 -0.117822,0.294556 -0.322461,0.496094 -0.223242,0.217041 -0.5333,0.334864 -0.306958,0.114721 -0.713135,0.114721 -0.378272,0 -0.728638,-0.08062 -0.350366,-0.07751 -0.592212,-0.189136 v -0.654223 h 0.04341 q 0.254248,0.16123 0.595313,0.275952 0.341064,0.111621 0.669726,0.111621 0.220142,0 0.424781,-0.06201 0.207739,-0.06201 0.368969,-0.217041 0.136426,-0.133325 0.204639,-0.31936 0.07131,-0.186035 0.07131,-0.430982 0,-0.238745 -0.08372,-0.403076 -0.08062,-0.164331 -0.226343,-0.26355 -0.16123,-0.117822 -0.393774,-0.164331 -0.229444,-0.04961 -0.514698,-0.04961 -0.272851,0 -0.527099,0.03721 -0.251148,0.03721 -0.434082,0.07441 v -2.37815 h 2.778125 v 0.542603 h -2.179712 v 1.227832 q 0.133325,-0.0124 0.272851,-0.0186 0.139527,-0.0062 0.241846,-0.0062 0.375171,0 0.657324,0.06511 0.282154,0.06201 0.517798,0.223242 0.248047,0.170532 0.384473,0.440283 0.136426,0.269751 0.136426,0.675928 z"
         inkscape:connector-curvature="0" />
    </g>
    <path
       id="path10384"
       style="fill:none;fill-opacity:1;stroke:#000000;stroke-width:0.25400001;stroke-linejoin:round;stroke-miterlimit:4;stroke-dasharray:none;stroke-opacity:1"
       d="m 484.25846,61.062675 h 3.03301 v 63.358015 h -3.03301 z m 0,-114.300003 h 3.03301 v 63.35801 h -3.03301 z m 29.9835,-50.762992 v 50.814989 h -4.76819 v 63.254535 h 4.76819 v 51.04546 h -4.76819 V 124.3692 h 4.76819 v 50.81448 h -56.934 V 124.3532 h 6.1035 V 61.110034 h -6.1035 v -51.0367 h 6.1035 v -63.243161 h -6.1035 v -50.830493 z" />
    <path
       id="path10386"
       style="fill:none;fill-opacity:1;stroke:#000000;stroke-width:0.25400001;stroke-linejoin:round;stroke-miterlimit:4;stroke-dasharray:none;stroke-opacity:1"
       d="m 547.75849,61.062675 h 3.03301 v 63.358015 h -3.03301 z m 0,-114.300003 h 3.03301 v 63.358009 h -3.03301 z m 29.9835,-50.762992 v 50.814989 h -4.76819 v 63.25453 h 4.76819 v 51.04546 H 572.9738 V 124.3692 h 4.76819 v 50.81448 h -56.934 V 124.3532 h 6.1035 V 61.110029 h -6.1035 v -51.0367 h 6.1035 v -63.24316 h -6.1035 v -50.830489 z" />
    <path
       id="path10388"
       style="fill:none;fill-opacity:1;stroke:#000000;stroke-width:0.25400001;stroke-linejoin:round;stroke-miterlimit:4;stroke-dasharray:none;stroke-opacity:1"
       d="m 234.87898,260.55851 v 3.03301 h -63.35801 v -3.03301 z m 114.3,0 v 3.03301 h -63.35801 v -3.03301 z m -228.421,29.9835 h 50.81499 v -4.76819 h 63.25453 v 4.76819 h 51.04546 v -4.76819 h 63.25454 v 4.76819 h 50.81448 v -56.934 H 349.1115 v 6.1035 h -63.24317 v -6.1035 h -51.0367 v 6.1035 h -63.24316 v -6.1035 h -50.83049 z" />
    <path
       id="ellipse11030"
       style="fill:none;fill-opacity:1;stroke:#000000;stroke-width:0.25400001;stroke-linejoin:round;stroke-miterlimit:4;stroke-dasharray:none;stroke-opacity:1"
       d="m 428.60079,-130.03752 a 1.5632818,1.5632818 0 0 1 -1.56328,1.56328 1.5632818,1.5632818 0 0 1 -1.56329,-1.56328 1.5632818,1.5632818 0 0 1 1.56329,-1.56328 1.5632818,1.5632818 0 0 1 1.56328,1.56328 z m 0,330.20001 a 1.5632818,1.5632818 0 0 1 -1.56328,1.56328 1.5632818,1.5632818 0 0 1 -1.56329,-1.56328 1.5632818,1.5632818 0 0 1 1.56329,-1.56328 1.5632818,1.5632818 0 0 1 1.56328,1.56328 z m -330.200007,0 a 1.5632818,1.5632818 0 0 1 -1.563281,1.56328 1.5632818,1.5632818 0 0 1 -1.563282,-1.56328 1.5632818,1.5632818 0 0 1 1.563282,-1.56328 1.5632818,1.5632818 0 0 1 1.563281,1.56328 z m 0,-330.20001 a 1.5632818,1.5632818 0 0 1 -1.563281,1.56328 1.5632818,1.5632818 0 0 1 -1.563282,-1.56328 1.5632818,1.5632818 0 0 1 1.563282,-1.56328 1.5632818,1.5632818 0 0 1 1.563281,1.56328 z m 258.393347,50.631723 c 0,4.943581 -3.09279,6.00724 -8.12114,6.00724 -5.02836,0 -8.12115,-0.796028 -8.12115,-5.739598 0,-4.943581 4.25511,-13.233215 7.94234,-13.233215 4.22365,0 8.29995,8.022005 8.29995,12.965573 z m -176.64625,0 c 0,4.943581 -3.09279,6.00724 -8.12115,6.00724 -5.02835,0 -8.12114,-0.796028 -8.12114,-5.739598 0,-4.943581 4.25511,-13.233215 7.94233,-13.233215 4.22366,0 8.29996,8.022005 8.29996,12.965573 z m -8.78587,-74.316953 v 6.13502 h -50.6243 v -6.13399 c -28.096248,0.0549 -50.704772,22.66345 -50.759702,50.75969 h 6.13399 v 50.624301 h -6.13502 v 63.675703 h 6.13502 v 50.62431 h -6.13502 v 63.675676 h 6.13502 v 50.62432 h -6.13399 c 0.0549,28.09623 22.663454,50.70475 50.759702,50.75967 v -6.13399 h 50.6243 v 6.13503 h 63.67571 v -6.13503 h 50.6243 v 6.13503 h 63.67568 v -6.13503 h 50.62432 v 6.13399 c 28.09623,-0.0549 50.70475,-22.66344 50.75967,-50.75967 h -6.13399 v -50.62432 h 6.13503 V 61.962284 h -6.13503 v -50.62431 h 6.13503 v -63.675703 h -6.13503 v -50.624301 h 6.13399 c -0.0549,-28.09624 -22.66344,-50.70476 -50.75967,-50.75969 v 6.13399 H 349.3377 v -6.13502 h -63.67568 v 6.13502 h -50.6243 v -6.13502 z" />
    <path
       id="rect11064"
       style="fill:none;fill-opacity:1;stroke:#000000;stroke-width:0.25400001;stroke-linejoin:round;stroke-miterlimit:4;stroke-dasharray:none;stroke-opacity:1"
       d="m 38.446556,-90.49572 h 18.814091 v 25.164091 H 38.446556 Z M 57.534225,31.748495 h -16.79585 v 9.803249 h 16.79585 z M 33.371486,62.120983 h 3.03301 V 125.479 h -3.03301 z m 0,-114.300003 h 3.03301 v 63.35801 h -3.03301 z M 6.4209959,-102.94201 v 50.814989 H 11.189176 V 11.127516 H 6.4209959 V 62.172971 H 11.189176 V 125.42752 H 6.4209959 v 50.81447 H 63.354986 v -50.83048 h -6.1035 V 62.168341 h 6.1035 V 11.131643 h -6.1035 v -63.24316 h 6.1035 v -50.830493 z" />
  </g>
</svg>
